<?xml version="1.0" encoding="UTF-8" standalone="no"?>
<!DOCTYPE svg  PUBLIC '-//W3C//DTD SVG 1.1//EN'  'http://www.w3.org/Graphics/SVG/1.1/DTD/svg11.dtd'>
<svg xmlns="http://www.w3.org/2000/svg">
<defs>
<font id="ArialNarrow-Regular" horiz-adv-x="934">
<font-face underline-position="-142" font-weight="400" descent="-410" panose-1="2 11 6 6 2 2 2 3 2 4" units-per-em="2048" unicode-range="U+0020-2666" font-stretch="condensed" bbox="-373 -431 1968 1888" x-height="1062" underline-thickness="150" font-family="ArialNarrow" ascent="1638" cap-height="1466"/>
<missing-glyph horiz-adv-x="2048"/>
<glyph glyph-name=".notdef" horiz-adv-x="2048"/>
<glyph glyph-name=".null" horiz-adv-x="0"/>
<glyph glyph-name="nonmarkingreturn" horiz-adv-x="2048"/>
<glyph glyph-name="space" horiz-adv-x="467" unicode=" "/>
<glyph glyph-name="space" horiz-adv-x="467" unicode=" "/>
<glyph glyph-name="exclam" horiz-adv-x="467" unicode="!" d="M155 0v205h169v-205h-169zM193 364l-45 777v325h183v-325l-42 -777h-96z"/>
<glyph glyph-name="quotedbl" horiz-adv-x="596" unicode='&quot;' d="M388 947l-39 279v240h168v-240l-40 -279h-89zM117 947l-41 279v240h168v-240l-37 -279h-90z"/>
<glyph glyph-name="numbersign" d="M301 550h258l61 363h-258zM82 -25l71 426h-138v149h163l61 363h-224v149h248l72 429h123l-72 -429h259l71 429h124l-72 -429h143v-149h-167l-61 -363h228v-149h-253l-71 -426h-124l71 426h-258l-71 -426h-123z" unicode="#"/>
<glyph glyph-name="dollar" d="M503 121q83 13 140.5 88.5t57.5 198.5q0 99 -42.5 158t-155.5 103v-548zM415 1365q-84 -16 -134.5 -82t-50.5 -169q0 -178 185 -247v498zM415 -211v180q-120 19 -189 67.5t-115 142.5t-54 228l149 34q19 -162 76.5 -236.5t132.5 -83.5v573q-98 22 -194 92 q-64 46 -101 128.5t-37 192.5q0 113 42 205.5t110 140.5t180 62v86h88v-86q93 -11 156.5 -53t106.5 -118.5t57 -189.5l-152 -28q-25 201 -168 237v-519q101 -31 130 -45q66 -31 114.5 -82t77 -127.5t28.5 -172.5q0 -195 -101 -316t-249 -130v-182h-88z" unicode="$"/>
<glyph glyph-name="percent" horiz-adv-x="1493" unicode="%" d="M1129 597q-56 0 -92.5 -58.5t-36.5 -205.5t37 -205t95 -58q52 0 88.5 59t36.5 205t-36.5 204.5t-91.5 58.5zM872 344q0 183 73 280t178 97q111 0 187 -96.5t76 -289.5q0 -190 -76.5 -289.5t-183.5 -99.5q-106 0 -180 99t-74 299zM351 -54l658 1545h120l-655 -1545h-123z M351 1367q-55 0 -91.5 -58.5t-36.5 -205.5t36.5 -205t94.5 -58q53 0 89.5 58.5t36.5 204.5t-37 205t-92 59zM94 1114q0 183 73 280t179 97q110 0 186 -97t76 -290q0 -189 -76 -288.5t-184 -99.5q-106 0 -180 98.5t-74 299.5z"/>
<glyph glyph-name="ampersand" horiz-adv-x="1120" unicode="&amp;" d="M706 315l-270 409q-114 -83 -159 -156.5t-45 -151.5q0 -100 62 -191t162 -91q64 0 135 49t115 132zM499 937q92 67 122 118t30 118q0 78 -40 124t-96 46q-57 0 -98.5 -45t-41.5 -117q0 -69 58 -151zM799 173q-146 -198 -344 -198q-179 0 -280.5 134t-101.5 296 q0 271 286 437q-79 111 -107 182.5t-28 139.5q0 139 87.5 233t210.5 94q118 0 199 -88.5t81 -224.5q0 -209 -227 -357l216 -335q35 86 57 204l153 -40q-39 -190 -106 -316q81 -132 187 -225l-99 -143q-89 71 -184 207z"/>
<glyph glyph-name="quotesingle" horiz-adv-x="322" unicode="&apos;" d="M109 947l-38 274v245h168v-245l-39 -274h-91z"/>
<glyph glyph-name="parenleft" horiz-adv-x="559" unicode="(" d="M392 -431q-110 172 -200.5 424t-90.5 539q0 486 291 959h106q-112 -235 -154.5 -364.5t-67 -284.5t-24.5 -312q0 -480 246 -961h-106z"/>
<glyph glyph-name="parenright" horiz-adv-x="559" unicode=")" d="M167 -431h-106q245 481 245 961q0 157 -24.5 312t-66.5 284.5t-154 364.5h106q291 -473 291 -959q0 -279 -87 -530.5t-204 -432.5z"/>
<glyph glyph-name="asterisk" horiz-adv-x="653" unicode="*" d="M50 1197l38 142q130 -56 189 -97q-15 184 -16 249h119q-2 -96 -19 -248q83 51 193 96l38 -142q-105 -42 -204 -56q50 -53 141 -189l-98 -85q-46 76 -113 215q-61 -141 -107 -215l-96 85q90 138 136 189q-107 25 -201 56z"/>
<glyph glyph-name="plus" horiz-adv-x="981" unicode="+" d="M419 237v402h-327v168h327v399h140v-399h327v-168h-327v-402h-140z"/>
<glyph glyph-name="comma" horiz-adv-x="467" unicode="," d="M152 0v205h168v-205q0 -119 -35 -186.5t-102 -103.5l-41 77q45 24 68 71.5t25 141.5h-83z"/>
<glyph glyph-name="hyphen" horiz-adv-x="559" unicode="-" d="M53 440v181h453v-181h-453z"/>
<glyph glyph-name="hyphen" horiz-adv-x="559" unicode="­" d="M53 440v181h453v-181h-453z"/>
<glyph glyph-name="period" horiz-adv-x="467" unicode="." d="M155 0v205h168v-205h-168z"/>
<glyph glyph-name="slash" horiz-adv-x="467" unicode="/" d="M0 -25l348 1516h119l-349 -1516h-118z"/>
<glyph glyph-name="zero" d="M218 723q0 -357 68.5 -478.5t175.5 -121.5q101 0 169 123t68 477q0 358 -68.5 479t-177.5 121q-100 0 -167.5 -123t-67.5 -477zM67 723q0 369 99.5 559t293.5 190q172 0 271 -154q120 -186 120 -595q0 -367 -99 -557.5t-294 -190.5q-172 0 -281.5 168t-109.5 580z" unicode="0"/>
<glyph glyph-name="one" d="M623 0h-148v1147q-51 -60 -137 -122.5t-158 -94.5v174q122 70 215.5 171t131.5 197h96v-1472z" unicode="1"/>
<glyph glyph-name="two" d="M845 173v-173h-795v9q0 102 65 229t242 304q207 206 271 318.5t64 209.5q0 112 -65.5 182.5t-161.5 70.5q-103 0 -169 -76t-66 -218l-152 19q16 211 119.5 317.5t272.5 106.5q184 0 278.5 -124t94.5 -282q0 -140 -74 -268.5t-281 -342.5q-132 -135 -170.5 -184t-62.5 -98 h590z" unicode="2"/>
<glyph glyph-name="three" d="M68 387l148 24q46 -288 233 -288q101 0 175 85.5t74 221.5q0 128 -68 206t-167 78q-42 0 -104 -20l17 158l23 -2q109 0 177 67t68 179q0 103 -57 165.5t-139 62.5q-85 0 -143.5 -65.5t-74.5 -198.5l-147 32q28 188 126 284t237 96q146 0 248 -108t102 -272 q0 -100 -43.5 -177t-121.5 -121q72 -20 119 -66t76 -123t29 -172q0 -202 -119 -330.5t-285 -128.5q-154 0 -261 112t-122 301z" unicode="3"/>
<glyph glyph-name="four" d="M540 516v661l-376 -661h376zM540 0v351h-521v165l549 950h120v-950h163v-165h-163v-351h-148z" unicode="4"/>
<glyph glyph-name="five" d="M67 384l155 16q18 -140 81.5 -208.5t147.5 -68.5q105 0 181 96.5t76 263.5q0 157 -73.5 243.5t-184.5 86.5q-67 0 -125.5 -37.5t-92.5 -104.5l-139 22l117 753h597v-172h-479l-65 -394q107 92 227 92q151 0 262.5 -128.5t111.5 -346.5q0 -215 -111.5 -368.5 t-299.5 -153.5q-156 0 -263.5 108.5t-122.5 300.5z" unicode="5"/>
<glyph glyph-name="six" d="M230 475q0 -159 75 -255.5t174 -96.5q87 0 155.5 91t68.5 250q0 156 -68 242t-166 86q-96 0 -167.5 -85.5t-71.5 -231.5zM833 1107l-147 -14q-21 113 -62 161q-59 70 -142 70q-129 0 -207 -160q-67 -138 -68 -408q51 96 128 145.5t163 49.5q143 0 249.5 -129.5 t106.5 -346.5q0 -147 -53.5 -266.5t-137.5 -176.5t-185 -57q-182 0 -300 164t-118 547q0 425 121 605.5t310 180.5q137 0 229.5 -93.5t112.5 -271.5z" unicode="6"/>
<glyph glyph-name="seven" d="M77 1274v173h778v-140q-174 -226 -306 -588.5t-152 -718.5h-152q3 184 58.5 429t152.5 467t209 378h-588z" unicode="7"/>
<glyph glyph-name="eight" d="M217 423q0 -135 72.5 -217.5t173.5 -82.5q102 0 173 80t71 214q0 135 -73 217.5t-175 82.5q-101 0 -171.5 -82t-70.5 -212zM266 1100q0 -108 57 -172t140 -64q81 0 138 63t57 163q0 103 -58.5 168.5t-138.5 65.5t-137.5 -64t-57.5 -160zM294 795q-89 40 -134.5 114.5 t-45.5 185.5q0 167 98.5 272t247.5 105q150 0 249.5 -107t99.5 -276q0 -106 -44 -179.5t-133 -114.5q109 -43 167.5 -139t58.5 -238q0 -196 -113.5 -319.5t-281.5 -123.5q-170 0 -283.5 123.5t-113.5 324.5q0 147 60.5 242.5t167.5 129.5z" unicode="8"/>
<glyph glyph-name="nine" d="M694 986q0 157 -70 247t-161 90q-95 0 -169.5 -96t-74.5 -256q0 -144 71 -229.5t170 -85.5q98 0 166 86t68 244zM89 339l142 16q34 -232 200 -232q74 0 134.5 50.5t102.5 179.5t42 301v36q-46 -89 -124 -141t-159 -52q-147 0 -253.5 128.5t-106.5 351.5 q0 230 110.5 362.5t268.5 132.5q112 0 209 -74t150 -218t53 -415q0 -302 -57 -469t-154.5 -244t-218.5 -77q-137 0 -229 93.5t-110 270.5z" unicode="9"/>
<glyph glyph-name="colon" horiz-adv-x="467" unicode=":" d="M155 0v205h168v-205h-168zM155 857v205h168v-205h-168z"/>
<glyph glyph-name="less" horiz-adv-x="981" unicode="&lt;" d="M90 641v168l796 410v-179l-631 -316l631 -319v-179z"/>
<glyph glyph-name="equal" horiz-adv-x="981" unicode="=" d="M886 417h-794v168h794v-168zM886 862h-794v168h794v-168z"/>
<glyph glyph-name="greater" horiz-adv-x="981" unicode="&gt;" d="M886 641l-796 -415v179l631 319l-631 316v179l796 -410v-168z"/>
<glyph glyph-name="question" d="M375 0v205h168v-205h-168zM385 361l-2 54q0 145 49 243q34 68 143 185q74 79 97 128.5t23 107.5q0 110 -70 187t-161 77q-93 0 -157.5 -71t-83.5 -226l-152 22q22 212 125.5 317.5t266.5 105.5q164 0 273.5 -112.5t109.5 -287.5q0 -96 -36 -176t-144 -198 q-92 -99 -114.5 -156.5t-25.5 -199.5h-141z" unicode="?"/>
<glyph glyph-name="at" horiz-adv-x="1704" unicode="@" d="M553 434q0 -138 54.5 -213.5t122.5 -75.5q58 0 128 58.5t120 182.5t50 261q0 140 -56 214t-135 74q-61 0 -122.5 -52t-111.5 -186t-50 -263zM950 163q-58 -82 -124.5 -124t-123.5 -42q-120 0 -202 109q-99 132 -99 340q0 168 71 327.5t168 235t190 75.5q68 0 133 -46 t112 -138l27 155h148l-119 -671q-24 -139 -24 -155q0 -29 17 -47.5t40 -18.5q44 0 125 70t136 203.5t55 282.5q0 178 -77 322t-212.5 225t-294.5 81q-189 0 -342 -102t-248.5 -303.5t-95.5 -460.5q0 -244 86 -415t245.5 -260t378.5 -89q197 0 346.5 82.5t227.5 219.5h148 q-49 -121 -161.5 -231.5t-248.5 -164.5t-313 -54q-259 0 -440 104t-285.5 306.5t-104.5 487.5q0 303 115 549t290.5 361.5t409.5 115.5q196 0 352.5 -96t251 -278.5t94.5 -403.5q0 -300 -174 -527q-147 -192 -320 -192q-82 0 -116.5 40.5t-41.5 126.5z"/>
<glyph glyph-name="A" horiz-adv-x="1120" unicode="A" d="M345 602h407l-125 406q-58 187 -85 304q-23 -141 -65 -280zM-2 0l462 1466h171l492 -1466h-182l-140 444h-502l-132 -444h-169z"/>
<glyph glyph-name="B" horiz-adv-x="1120" unicode="B" d="M283 173h299q99 0 146 18q68 26 103.5 85.5t35.5 149.5q0 83 -34 140.5t-91.5 84t-180.5 26.5h-278v-504zM283 850h260q102 0 145 14q62 21 95.5 70.5t33.5 134.5q0 79 -30.5 131.5t-81 72.5t-181.5 20h-241v-443zM124 0v1466h451q137 0 217 -42.5t131 -132.5t51 -199 q0 -101 -44 -182t-124 -130q105 -38 165.5 -129.5t60.5 -225.5q0 -133 -54.5 -233.5t-145.5 -146t-250 -45.5h-458z"/>
<glyph glyph-name="C" horiz-adv-x="1212" unicode="C" d="M983 514l160 -49q-53 -247 -185.5 -368.5t-322.5 -121.5q-167 0 -285.5 81.5t-194 261.5t-75.5 425q0 242 75.5 409.5t204.5 253t288 85.5q174 0 299 -108.5t175 -318.5l-156 -45q-80 306 -321 306q-120 0 -208 -61.5t-140.5 -191.5t-52.5 -329q0 -301 106 -451.5 t282 -150.5q130 0 224.5 92.5t126.5 280.5z"/>
<glyph glyph-name="D" horiz-adv-x="1212" unicode="D" d="M285 173h256q155 0 235 50.5t123 162.5q57 149 57 357q0 223 -60.5 350.5t-155.5 170.5q-64 29 -203 29h-252v-1120zM126 0v1466h415q154 0 234 -27q105 -35 182 -128t120 -234.5t43 -335.5q0 -249 -73 -422.5t-187.5 -246t-299.5 -72.5h-434z"/>
<glyph glyph-name="E" horiz-adv-x="1120" unicode="E" d="M133 0v1466h869v-173h-710v-449h665v-172h-665v-499h738v-173h-897z"/>
<glyph glyph-name="F" horiz-adv-x="1026" unicode="F" d="M141 0v1466h811v-173h-652v-454h564v-173h-564v-666h-159z"/>
<glyph glyph-name="G" horiz-adv-x="1307" unicode="G" d="M696 575v172l509 1v-544q-117 -114 -242 -171.5t-257 -57.5q-176 0 -314 88t-218.5 257t-80.5 406q0 240 81 418t212 262.5t310 84.5q132 0 231 -49t163 -139t96 -247l-143 -48q-29 124 -73 185.5t-116 96.5t-162 35q-131 0 -225.5 -63.5t-152 -197.5t-57.5 -327 q0 -294 123 -440.5t320 -146.5q94 0 192.5 45t156.5 107v273h-353z"/>
<glyph glyph-name="H" horiz-adv-x="1212" unicode="H" d="M129 0v1466h159v-602h625v602h159v-1466h-159v691h-625v-691h-159z"/>
<glyph glyph-name="I" horiz-adv-x="467" unicode="I" d="M160 0v1466h159v-1466h-159z"/>
<glyph glyph-name="J" horiz-adv-x="840" unicode="J" d="M45 416l143 24q6 -168 52 -230t127 -62q57 0 100.5 31.5t58.5 79.5q21 65 21 197v1010h159v-999q0 -270 -88.5 -381t-249.5 -111q-157 0 -234 100q-89 114 -89 341z"/>
<glyph glyph-name="K" horiz-adv-x="1120" unicode="K" d="M124 0v1466h159v-727l597 727h216l-505 -594l527 -872h-210l-428 742l-197 -234v-508h-159z"/>
<glyph glyph-name="L" d="M120 0v1466h159v-1293h592v-173h-751z" unicode="L"/>
<glyph glyph-name="M" horiz-adv-x="1399" unicode="M" d="M125 0v1466h239l285 -1038l57 -217q21 81 64 235l288 1020h214v-1466h-153v1227l-350 -1227h-143l-348 1248v-1248h-153z"/>
<glyph glyph-name="N" horiz-adv-x="1212" unicode="N" d="M125 0v1466h163l632 -1151v1151h152v-1466h-163l-631 1152v-1152h-153z"/>
<glyph glyph-name="O" horiz-adv-x="1307" unicode="O" d="M249 711q0 -271 119.5 -420.5t290.5 -149.5q175 0 293.5 151t118.5 444q0 189 -61 338q-47 114 -141.5 182.5t-206.5 68.5q-180 0 -296.5 -150t-116.5 -464zM85 714q0 375 165 576.5t411 201.5q159 0 290 -90t207.5 -261.5t76.5 -408.5q0 -326 -148 -531 q-163 -226 -427 -226q-266 0 -428 232q-147 210 -147 507z"/>
<glyph glyph-name="P" horiz-adv-x="1120" unicode="P" d="M289 769h311q147 0 215 66.5t68 200.5q0 87 -33.5 149t-81 85t-171.5 23h-308v-524zM130 0v1466h453q160 0 236 -28q104 -38 166 -141t62 -253q0 -198 -101 -323t-349 -125h-308v-596h-159z"/>
<glyph glyph-name="Q" horiz-adv-x="1307" unicode="Q" d="M694 405q137 -46 227 -140q140 158 140 471q0 189 -53.5 321t-148 200t-206.5 68q-178 0 -295.5 -149.5t-117.5 -443.5q0 -290 119 -440.5t294 -150.5q84 0 160 39q-74 59 -158 84zM1045 157q111 -93 204 -136l-47 -135q-132 58 -258 180q-133 -91 -294 -91 q-264 0 -427 231q-147 208 -147 526q0 238 79 412.5t207.5 261t289.5 86.5q159 0 289.5 -89.5t207.5 -261t77 -405.5q0 -183 -47.5 -331t-133.5 -248z"/>
<glyph glyph-name="R" horiz-adv-x="1212" unicode="R" d="M288 819h342q112 0 170 27t92 85t34 135q0 111 -65 174.5t-193 63.5h-380v-485zM129 0v1466h533q167 0 246.5 -41t130.5 -136.5t51 -221.5q0 -166 -86.5 -269t-251.5 -131q67 -40 102 -81q71 -84 125 -187l210 -399h-200l-160 305q-93 179 -140.5 241t-92 83.5 t-124.5 21.5h-184v-651h-159z"/>
<glyph glyph-name="S" horiz-adv-x="1120" unicode="S" d="M76 471l150 16q12 -121 54.5 -188.5t121.5 -108.5t178 -41q142 0 220.5 69.5t78.5 180.5q0 65 -28.5 113.5t-86 79.5t-248.5 87q-170 50 -242 101t-112 129.5t-40 177.5q0 178 115 291t310 113q134 0 234.5 -53t156 -152t59.5 -233l-153 -14q-12 143 -85.5 212t-206.5 69 q-135 0 -206 -60.5t-71 -156.5q0 -89 52 -138t234 -99q178 -49 250 -85q110 -56 166 -147.5t56 -218.5q0 -126 -59 -229.5t-160.5 -157.5t-244.5 -54q-223 0 -355.5 134t-137.5 363z"/>
<glyph glyph-name="T" horiz-adv-x="1026" unicode="T" d="M438 0v1293h-396v173h953v-173h-398v-1293h-159z"/>
<glyph glyph-name="U" horiz-adv-x="1212" unicode="U" d="M915 1466h160v-847q0 -213 -41.5 -349.5t-151 -215.5t-278.5 -79q-238 0 -356.5 142t-118.5 502v847h159v-846q0 -199 31 -288t101.5 -135.5t171.5 -46.5q170 0 246.5 96t76.5 374v846z"/>
<glyph glyph-name="V" horiz-adv-x="1120" unicode="V" d="M474 0l-466 1466h172l313 -1065q36 -124 63 -240q28 121 64 240l325 1065h162l-470 -1466h-163z"/>
<glyph glyph-name="W" horiz-adv-x="1585" unicode="W" d="M342 0l-319 1466h163l183 -961q29 -148 51 -300l54 271l229 990h192l172 -742q63 -271 94 -519q23 143 59 319l189 942h160l-330 -1466h-153l-254 1117l-38 172q-17 -96 -35 -172l-255 -1117h-162z"/>
<glyph glyph-name="X" horiz-adv-x="1120" unicode="X" d="M8 0l465 764l-410 702h189l219 -376q67 -116 96 -180q39 78 95 167l243 389h172l-422 -691l455 -775h-196l-303 523q-25 44 -52 98q-41 -80 -58 -110l-302 -511h-191z"/>
<glyph glyph-name="Y" horiz-adv-x="1120" unicode="Y" d="M468 0v621l-463 845h194l236 -442q70 -131 123 -248q53 115 131 259l233 431h185l-480 -845v-621h-159z"/>
<glyph glyph-name="Z" horiz-adv-x="1026" unicode="Z" d="M36 0v180l616 939q64 98 125 174h-672v173h861v-173l-674 -1017l-73 -103h767v-173h-950z"/>
<glyph glyph-name="bracketleft" horiz-adv-x="467" unicode="[" d="M117 -407v1873h326v-149h-179v-1575h179v-149h-326z"/>
<glyph glyph-name="backslash" horiz-adv-x="467" unicode="\" d="M348 -25l-348 1516h119l348 -1516h-119z"/>
<glyph glyph-name="bracketright" horiz-adv-x="467" unicode="]" d="M362 -407h-326v149h178v1575h-178v149h326v-1873z"/>
<glyph glyph-name="asciicircum" horiz-adv-x="788" unicode="^" d="M196 690h-151l290 801h119l290 -801h-148l-203 597z"/>
<glyph glyph-name="underscore" d="M-12 -154h955v-102h-955v102z" unicode="_"/>
<glyph glyph-name="grave" horiz-adv-x="559" unicode="`" d="M381 1194h-119l-189 280h198z"/>
<glyph glyph-name="a" d="M664 533q-81 -40 -241 -68q-93 -16 -130 -36.5t-57.5 -58t-20.5 -86.5q0 -76 47 -121.5t130 -45.5q79 0 143.5 41t96.5 109.5t32 199.5v66zM676 131q-74 -77 -154 -116t-166 -39q-136 0 -217 82t-81 221q0 92 38 163t104 111t200 59q180 26 264 62l1 46q0 109 -39 153 q-55 64 -169 64q-103 0 -154 -42.5t-75 -159.5l-145 24q31 171 125.5 249t270.5 78q137 0 215 -51.5t98.5 -127.5t20.5 -222v-240q0 -252 9.5 -317.5t37.5 -127.5h-154q-23 55 -30 131z" unicode="a"/>
<glyph glyph-name="b" d="M242 539q0 -165 30 -247t85 -125t122 -43q91 0 161.5 102.5t70.5 306.5q0 209 -68 307t-167 98q-91 0 -162.5 -102.5t-71.5 -296.5zM244 0h-137v1466h147v-523q47 72 106.5 107.5t132.5 35.5q102 0 185.5 -61t133.5 -185t50 -301q0 -270 -113 -416.5t-264 -146.5 q-76 0 -136.5 39.5t-104.5 117.5v-133z" unicode="b"/>
<glyph glyph-name="c" horiz-adv-x="840" unicode="c" d="M679 389l145 -23q-25 -190 -125.5 -290t-241.5 -100q-171 0 -281.5 140.5t-110.5 415.5q0 277 111.5 415.5t286.5 138.5q135 0 227.5 -84t118.5 -252l-143 -27q-21 108 -73 161.5t-125 53.5q-109 0 -180.5 -96.5t-71.5 -306.5q0 -217 68.5 -314t175.5 -97 q84 0 143.5 64.5t75.5 200.5z"/>
<glyph glyph-name="d" d="M206 530q0 -206 71.5 -306t166.5 -100q94 0 163 96t69 290q0 223 -69 325.5t-174 102.5q-93 0 -160 -98.5t-67 -309.5zM673 0v134q-40 -77 -103 -117.5t-136 -40.5q-154 0 -266.5 145.5t-112.5 409.5q0 181 50 307t133.5 187t185.5 61q73 0 135.5 -38.5t103.5 -107.5v526 h148v-1466h-138z" unicode="d"/>
<glyph glyph-name="e" d="M219 633h486q-10 138 -59 206q-71 99 -181 99q-99 0 -169 -82.5t-77 -222.5zM704 342l152 -23q-38 -170 -137.5 -256.5t-246.5 -86.5q-185 0 -299.5 140.5t-114.5 405.5q0 275 115.5 419.5t292.5 144.5q169 0 282 -142t113 -411l-1 -48h-650q9 -179 83 -270t180 -91 q166 0 231 218z" unicode="e"/>
<glyph glyph-name="f" horiz-adv-x="467" unicode="f" d="M150 0v922h-131v140h131v113q0 125 26 187.5t79.5 95.5t134.5 33q63 0 138 -18l-22 -157q-46 10 -87 10q-66 0 -94.5 -34.5t-28.5 -131.5v-98h170v-140h-170v-922h-146z"/>
<glyph glyph-name="g" d="M203 550q0 -209 69 -305t169 -96t170 94t70 299q0 200 -72 297.5t-175 97.5q-92 0 -161.5 -97.5t-69.5 -289.5zM80 -88l144 -26q10 -85 60 -126.5t139 -41.5q97 0 154.5 46.5t78.5 138.5q13 56 13 236q-48 -69 -108 -104t-133 -35q-156 0 -259 132q-118 152 -118 407 q0 171 52 299t136.5 188t189.5 60q77 0 140.5 -38t112.5 -114v128h136v-918q0 -245 -40 -349.5t-131 -165t-219 -60.5q-169 0 -258.5 89.5t-89.5 243.5v10z" unicode="g"/>
<glyph glyph-name="h" d="M108 0v1466h147v-526q52 73 117.5 109.5t144.5 36.5q139 0 219.5 -88.5t80.5 -324.5v-673h-147v673q0 138 -49 198t-135 60q-96 0 -163.5 -77t-67.5 -273v-581h-147z" unicode="h"/>
<glyph glyph-name="i" horiz-adv-x="373" unicode="i" d="M108 0v1062h147v-1062h-147zM108 1259v207h147v-207h-147z"/>
<glyph glyph-name="j" horiz-adv-x="373" unicode="j" d="M-80 -412l28 153q44 -14 69 -14q47 0 68.5 37t21.5 182v1116h147v-1120q0 -217 -55.5 -295t-162.5 -78q-60 0 -116 19zM107 1257v209h147v-209h-147z"/>
<glyph glyph-name="k" horiz-adv-x="840" unicode="k" d="M112 0v1466h147v-836l350 432h191l-333 -394l366 -668h-181l-289 543l-104 -122v-421h-147z"/>
<glyph glyph-name="l" horiz-adv-x="373" unicode="l" d="M104 0v1466h147v-1466h-147z"/>
<glyph glyph-name="m" horiz-adv-x="1399" unicode="m" d="M110 0v1062h132v-149q44 83 113 128t151 45q92 0 155.5 -47.5t90.5 -138.5q52 93 119.5 139.5t149.5 46.5q125 0 197 -85t72 -272v-729h-147v669q0 114 -16.5 161.5t-53.5 73.5t-83 26q-95 0 -155 -75.5t-60 -237.5v-617h-148v690q0 132 -40.5 186t-111.5 54 q-101 0 -159.5 -81.5t-58.5 -297.5v-551h-147z"/>
<glyph glyph-name="n" d="M108 0v1062h133v-151q48 88 117.5 131.5t159.5 43.5q70 0 129.5 -27.5t96 -72t54.5 -115.5t18 -218v-653h-148v646q0 117 -20 171t-62.5 83.5t-98.5 29.5q-106 0 -169 -79t-63 -271v-580h-147z" unicode="n"/>
<glyph glyph-name="o" d="M204 531q0 -206 75 -306.5t186 -100.5q104 0 178.5 101.5t74.5 305.5q0 205 -75 305.5t-186 100.5q-105 0 -179 -101t-74 -305zM53 531q0 275 115.5 415t292.5 140q174 0 291 -140t117 -404q0 -286 -115 -426t-293 -140q-175 0 -291.5 140.5t-116.5 414.5z" unicode="o"/>
<glyph glyph-name="p" d="M241 525q0 -206 69 -303.5t167 -97.5q94 0 165 101t71 312q0 208 -69 308t-168 100q-89 0 -162 -107.5t-73 -312.5zM108 -407v1469h135v-138q50 86 111 124t140 38q103 0 186 -61t133.5 -185.5t50.5 -299.5q0 -271 -113.5 -417.5t-266.5 -146.5q-68 0 -127 35t-102 99 v-517h-147z" unicode="p"/>
<glyph glyph-name="q" d="M207 534q0 -207 72 -308.5t172 -101.5q89 0 158 97.5t69 290.5q0 219 -72.5 325.5t-172.5 106.5q-91 0 -158.5 -99.5t-67.5 -310.5zM663 -407v520q-35 -61 -97.5 -99t-125.5 -38q-156 0 -270 148t-114 417q0 234 96 389.5t272 155.5q81 0 144 -41.5t109 -124.5v142h133 v-1469h-147z" unicode="q"/>
<glyph glyph-name="r" horiz-adv-x="559" unicode="r" d="M108 0v1062h133v-161q51 112 93.5 148.5t95.5 36.5q74 0 151 -58l-50 -167q-55 39 -107 39q-47 0 -86 -33t-55 -92q-28 -103 -28 -219v-556h-147z"/>
<glyph glyph-name="s" horiz-adv-x="840" unicode="s" d="M52 317l146 28q13 -112 71 -166.5t154 -54.5t148.5 47.5t52.5 120.5q0 63 -45 98q-31 24 -150 60q-172 53 -230 90t-90 99t-32 141q0 136 87 221t241 85q97 0 170.5 -35t112.5 -94t54 -169l-144 -24q-20 174 -189 174q-96 0 -143 -38.5t-47 -98.5q0 -59 45 -93 q27 -20 160 -64q183 -59 237 -93.5t84 -94t30 -141.5q0 -152 -96.5 -246t-263.5 -94q-313 0 -363 342z"/>
<glyph glyph-name="t" horiz-adv-x="467" unicode="t" d="M437 161l20 -159q-61 -16 -110 -16q-77 0 -124 30.5t-64.5 83.5t-17.5 211v611h-108v140h108v263l147 108v-371h149v-140h-149v-621q0 -86 13 -111q19 -36 71 -36q25 0 65 7z"/>
<glyph glyph-name="u" d="M679 0v156q-51 -90 -120 -135t-156 -45q-103 0 -176 55.5t-97.5 140.5t-24.5 232v658h147v-589q0 -164 16.5 -219.5t61 -89t101.5 -33.5q106 0 174 87q58 75 58 275v569h148v-1062h-132z" unicode="u"/>
<glyph glyph-name="v" horiz-adv-x="840" unicode="v" d="M352 0l-331 1062h156l187 -636q32 -108 56 -214q19 84 54 202l194 648h152l-330 -1062h-138z"/>
<glyph glyph-name="w" horiz-adv-x="1212" unicode="w" d="M268 0l-266 1062h153l138 -613l51 -228l46 219l138 622h152l130 -616l44 -203l50 205l149 614h144l-273 -1062h-153l-139 636l-33 181l-176 -817h-155z"/>
<glyph glyph-name="x" horiz-adv-x="840" unicode="x" d="M12 0l318 552l-294 510h184l134 -249q37 -69 61 -119q37 68 66 117l147 251h176l-301 -500l324 -562h-181l-179 330l-47 89l-229 -419h-179z"/>
<glyph glyph-name="y" horiz-adv-x="840" unicode="y" d="M104 -409l-16 169q49 -16 84 -16q47 0 77.5 19t50.5 59q7 14 58 176l-331 1064h159l182 -615q34 -115 63 -246q25 124 60 242l186 619h148l-331 -1080q-65 -210 -102.5 -280.5t-85 -101.5t-107.5 -31q-42 0 -95 22z"/>
<glyph glyph-name="z" horiz-adv-x="840" unicode="z" d="M33 0v146l555 776q-95 -6 -167 -6h-355v146h712v-119l-472 -674l-91 -123q99 9 186 9h403v-155h-771z"/>
<glyph glyph-name="braceleft" horiz-adv-x="561" unicode="{" d="M46 612q56 1 96 35.5t56.5 100t17.5 251.5q1 182 7 242q11 97 50 161q28 47 75 68t127 21h46v-157h-26q-84 0 -112.5 -36.5t-28.5 -168.5q0 -276 -12 -350q-16 -100 -52 -153.5t-107 -95.5q87 -45 129 -138t42 -312q0 -221 7 -258q10 -53 37 -74.5t97 -21.5h26v-157h-46 q-86 0 -129 21.5t-70 62.5q-37 56 -48 131t-12 277q-1 186 -18 252.5t-56 100t-96 35.5v163z"/>
<glyph glyph-name="bar" horiz-adv-x="436" unicode="|" d="M156 -431v1922h129v-1922h-129z"/>
<glyph glyph-name="braceright" horiz-adv-x="561" unicode="}" d="M512 612v-163q-57 -2 -96.5 -36t-56 -100.5t-17.5 -251.5q-1 -181 -7 -240q-11 -97 -50 -162q-28 -48 -75 -69t-127 -21h-46v157h26q83 0 111.5 37t28.5 169q0 277 13 353q17 99 56.5 156t102.5 89q-94 55 -133 145t-39 305q0 221 -6 259q-10 53 -37 74t-97 21h-26v157 h46q86 0 129 -21.5t70 -62.5q37 -56 48 -131t12 -277q1 -185 18 -252t56 -100.5t96 -34.5z"/>
<glyph glyph-name="asciitilde" horiz-adv-x="981" unicode="~" d="M72 557v205q87 120 228 120q46 0 100.5 -17t156.5 -70q91 -47 142 -47q49 0 95 28q65 41 117 109v-212q-102 -114 -227 -114q-48 0 -92 13t-133 62q-108 59 -173 59q-50 0 -97 -27t-117 -109z"/>
<glyph glyph-name="exclamdown" horiz-adv-x="559" unicode="¡" d="M326 697l45 -776v-325h-183v325l42 776h96zM364 1062v-205h-169v205h169z"/>
<glyph glyph-name="cent" d="M520 940q-25 3 -40 3q-104 0 -174 -98t-70 -307q0 -269 102 -361zM608 894l-183 -766q28 -9 51 -9q82 0 145.5 70.5t77.5 199.5l147 -20q-28 -190 -131 -293.5t-238 -103.5q-39 0 -84 14l-96 -395l-92 32l94 398q-94 55 -154 183.5t-60 325.5q0 185 50 307t141.5 185.5 t199.5 63.5q28 0 77 -7l93 387l90 -32l-92 -387q151 -77 185 -297l-143 -27q-21 113 -78 171z" unicode="¢"/>
<glyph glyph-name="sterling" d="M323 809h258v-148h-233q16 -44 16 -86q0 -89 -34.5 -186.5t-111.5 -197.5q65 22 118 22q68 0 153 -25q140 -41 191 -41q60 0 157 56l48 -165q-123 -64 -197 -64q-34 0 -70 8q-24 6 -107 37q-86 32 -113 38q-37 9 -71 9q-132 0 -250 -94l-57 173q86 57 137 157.5t51 234.5 q0 61 -13 124h-161v148h126q-42 177 -42 264q0 191 106.5 304.5t265.5 113.5q144 0 242.5 -97t121.5 -282l-147 -27q-13 123 -75.5 190.5t-143.5 67.5q-88 0 -150 -69t-62 -176q0 -111 47 -289z" unicode="£"/>
<glyph glyph-name="currency" d="M247 726q0 -112 64 -186t149 -74t149 74t64 186q0 111 -64 185t-149 74t-149 -74t-64 -185zM172 961l-114 136l94 119l114 -139q43 36 91.5 54t103.5 18t103.5 -18t90.5 -54l114 139l95 -119l-114 -136q58 -110 58 -235t-58 -236l114 -136l-95 -119l-114 140 q-42 -36 -90.5 -54.5t-103.5 -18.5t-103.5 18.5t-91.5 54.5l-114 -140l-94 119l114 136q-58 111 -58 236t58 235z" unicode="¤"/>
<glyph glyph-name="yen" d="M389 0v325h-341v139h341v143h-341v148h280l-333 711h164l238 -516q41 -90 62 -154q18 52 68 163l224 507h175l-332 -711h280v-148h-338v-143h338v-139h-338v-325h-147z" unicode="¥"/>
<glyph glyph-name="brokenbar" horiz-adv-x="436" unicode="¦" d="M285 360v-791h-129v791h129zM285 1491v-790h-129v790h129z"/>
<glyph glyph-name="section" d="M594 244q59 37 90 87t31 100q0 58 -42.5 120t-184.5 169q-113 84 -168 138q-68 -48 -95 -94t-27 -100q0 -63 38 -120.5t169 -151.5q113 -81 189 -148zM114 -70l149 26q24 -132 75 -183.5t134 -51.5q79 0 128.5 50t49.5 124q0 29 -9.5 56t-29.5 51q-59 75 -269 232 q-154 115 -200 180q-78 108 -78 230q0 100 50.5 176.5t133.5 106.5q-52 62 -78.5 124t-26.5 124q0 135 86 225.5t219 90.5q141 0 230 -86.5t107 -260.5l-153 -19q-18 124 -62 171t-116 47q-70 0 -118.5 -47.5t-48.5 -113.5q0 -28 11.5 -56.5t33.5 -57.5q44 -58 236 -200 q165 -124 214 -188q73 -96 73 -216q0 -108 -55 -186q-36 -51 -132 -100q66 -61 98.5 -131t32.5 -150q0 -143 -92.5 -235.5t-237.5 -92.5q-146 0 -240.5 92.5t-114.5 268.5z" unicode="§"/>
<glyph glyph-name="dieresis" horiz-adv-x="559" unicode="¨" d="M356 1270v205h154v-205h-154zM50 1270v205h154v-205h-154z"/>
<glyph glyph-name="copyright" horiz-adv-x="1237" unicode="©" d="M822 614l100 -36q-25 -129 -106.5 -201.5t-190.5 -72.5q-140 0 -232.5 111t-92.5 319t91.5 317t240.5 109q103 0 177 -62t101 -174l-98 -29q-25 76 -73.5 114.5t-110.5 38.5q-93 0 -155 -81t-62 -240q0 -152 59 -229t147 -77q72 0 129 50.5t76 142.5zM623 1366 q-221 0 -374 -196q-142 -182 -142 -434q0 -271 162 -457q150 -172 354 -172q220 0 374 196q142 181 142 433q0 271 -162 457q-150 173 -354 173zM623 1491q263 0 441 -226t178 -529q0 -211 -88 -388t-230.5 -271.5t-300.5 -94.5q-263 0 -441 225.5t-178 528.5q0 212 88 389 t230.5 271.5t300.5 94.5z"/>
<glyph glyph-name="ordfeminine" horiz-adv-x="621" unicode="ª" d="M440 1104q-43 -14 -157 -36q-71 -13 -92 -34q-27 -28 -27 -70q0 -43 29.5 -70.5t75.5 -27.5q57 0 102 36t62 95q7 23 7 107zM453 853q-100 -107 -210 -107q-87 0 -144 59t-57 159q0 84 39 134t109 69l173 34q60 14 79 20q-1 85 -22 111q-34 42 -106 42q-122 0 -137 -125 l-113 34q11 95 76 151.5t176 56.5q127 0 186 -58q58 -59 58 -184v-240l-1 -59q0 -135 33 -186h-121q-16 40 -18 89z"/>
<glyph glyph-name="guillemotleft" d="M593 528l216 -456h-124l-257 456l257 456h124zM276 528l213 -456h-121l-261 456l261 456h122z" unicode="«"/>
<glyph glyph-name="logicalnot" horiz-adv-x="981" unicode="¬" d="M886 424h-140v438h-654v168h794v-606z"/>
<glyph glyph-name="registered" horiz-adv-x="1237" unicode="®" d="M459 776h131q88 0 124.5 31.5t36.5 92.5q0 39 -18.5 68t-47.5 41t-104 12h-122v-245zM351 319v812h230q118 0 168 -22t83 -76t33 -122q0 -94 -53.5 -157.5t-136.5 -71.5q37 -19 59 -46q42 -52 96 -158l80 -159h-130l-60 128q-68 147 -109 187q-31 30 -88 30h-64v-345 h-108zM623 1366q-221 0 -374 -196q-142 -182 -142 -434q0 -271 162 -457q150 -172 354 -172q220 0 374 196q142 181 142 433q0 271 -162 457q-150 173 -354 173zM623 1491q263 0 441 -226t178 -529q0 -211 -88 -388t-230.5 -271.5t-300.5 -94.5q-263 0 -441 225.5 t-178 528.5q0 212 88 389t230.5 271.5t300.5 94.5z"/>
<glyph glyph-name="overscore" horiz-adv-x="1024" unicode="¯" d="M-12 1722h1048v-103h-1048v103z"/>
<glyph glyph-name="degree" horiz-adv-x="819" unicode="°" d="M237 1214q0 -70 49.5 -119.5t119.5 -49.5q69 0 118.5 49.5t49.5 119.5t-49.5 119.5t-118.5 49.5q-70 0 -119.5 -49.5t-49.5 -119.5zM128 1214q0 115 81.5 196t195.5 81q116 0 197 -81t81 -196t-81.5 -196.5t-196.5 -81.5q-114 0 -195.5 81t-81.5 197z"/>
<glyph glyph-name="plusminus" horiz-adv-x="1124" unicode="±" d="M1046 0h-968v168h968v-168zM477 260v403h-399v167h399v399h170v-399h399v-167h-399v-403h-170z"/>
<glyph glyph-name="twosuperior" horiz-adv-x="559" unicode="²" d="M20 733q12 131 212 308q120 106 143.5 141t23.5 73q0 52 -30 81.5t-83 29.5t-80 -23t-45 -91l-124 16q25 115 85 165.5t165 50.5q118 0 179 -55.5t61 -149.5q0 -84 -50 -159q-37 -55 -166 -169q-68 -61 -97 -97h317v-121h-511z"/>
<glyph glyph-name="threesuperior" horiz-adv-x="559" unicode="³" d="M26 929l120 15q17 -62 48 -87t78 -25q55 0 91.5 37.5t36.5 95.5q0 53 -31 81.5t-98 28.5l-27 -2l-18 -1l18 110h4q58 0 90 27q34 28 34 75q0 40 -26.5 64.5t-71.5 24.5t-71.5 -21.5t-45.5 -80.5l-117 23q35 109 86.5 149.5t149.5 40.5q110 0 167 -50.5t57 -135.5 q0 -59 -30 -101t-83 -60q142 -43 142 -191q0 -99 -68 -165t-179 -66q-220 0 -256 214z"/>
<glyph glyph-name="acute" horiz-adv-x="559" unicode="´" d="M182 1194l109 280h193l-180 -280h-122z"/>
<glyph glyph-name="mu1" horiz-adv-x="1180" unicode="µ" d="M1018 1062v-1062h-161v126q-52 -80 -103 -110q-70 -41 -163 -41q-83 0 -147 33q-48 25 -106 99v-514h-178v1469h178v-450q0 -245 26 -317.5t84.5 -114.5t134.5 -42q80 0 143 44t89 113.5t26 313.5v453h177z"/>
<glyph glyph-name="paragraph" horiz-adv-x="901" unicode="¶" d="M337 -407v1045q-148 9 -240 117t-92 289q0 133 48 230t132.5 144.5t207.5 47.5h518v-173h-117v-1700h-140v1700h-182v-1700h-135z"/>
<glyph glyph-name="middot" horiz-adv-x="557" unicode="·" d="M196 637v205h168v-205h-168z"/>
<glyph glyph-name="cedilla" horiz-adv-x="559" unicode="¸" d="M177 -154l43 177h110l-28 -107q68 -10 104.5 -51t36.5 -99q0 -78 -62.5 -132.5t-170.5 -54.5q-71 0 -122 12l9 117q53 -4 81 -4q67 0 97.5 21t30.5 54q0 31 -27.5 48.5t-101.5 18.5z"/>
<glyph glyph-name="onesuperior" horiz-adv-x="559" unicode="¹" d="M270 733v554q-84 -81 -184 -113v123q51 20 113.5 73.5t100.5 113.5h89v-751h-119z"/>
<glyph glyph-name="ordmasculine" horiz-adv-x="612" unicode="º" d="M306 1358q-66 0 -106.5 -57t-40.5 -187q0 -126 41.5 -184t106.5 -58q64 0 105.5 58t41.5 186q0 126 -42 184t-106 58zM306 1491q115 0 186 -90q83 -106 83 -286q0 -179 -83 -286q-70 -89 -186 -89q-115 0 -192 96t-77 275q0 184 83 290q70 90 186 90z"/>
<glyph glyph-name="guillemotright" d="M328 528l-216 456h124l257 -456l-257 -456h-124zM646 528l-214 456h121l261 -456l-261 -456h-120z" unicode="»"/>
<glyph glyph-name="onequarter" horiz-adv-x="1401" unicode="¼" d="M270 733v554q-84 -81 -184 -113v123q51 20 113.5 73.5t100.5 113.5h89v-751h-119zM203 -57l903 1548h128l-902 -1548h-129zM1172 231v263l-188 -263h188zM1172 -31v154h-313v123l332 474h100v-489h85v-108h-85v-154h-119z"/>
<glyph glyph-name="onehalf" horiz-adv-x="1401" unicode="½" d="M270 733v554q-84 -81 -184 -113v123q51 20 113.5 73.5t100.5 113.5h89v-751h-119zM183 -57l903 1548h128l-902 -1548h-129zM860 -31q12 131 212 308q120 106 143.5 141t23.5 73q0 52 -30 81.5t-83 29.5t-80 -23t-45 -91l-124 16q25 115 85 165.5t165 50.5 q118 0 179 -55.5t61 -149.5q0 -84 -50 -159q-37 -55 -166 -169q-68 -61 -97 -97h317v-121h-511z"/>
<glyph glyph-name="threequarters" horiz-adv-x="1401" unicode="¾" d="M26 929l120 15q17 -62 48 -87t78 -25q55 0 91.5 37.5t36.5 95.5q0 53 -31 81.5t-98 28.5l-27 -2l-18 -1l18 110h4q58 0 90 27q34 28 34 75q0 40 -26.5 64.5t-71.5 24.5t-71.5 -21.5t-45.5 -80.5l-117 23q35 109 86.5 149.5t149.5 40.5q110 0 167 -50.5t57 -135.5 q0 -59 -30 -101t-83 -60q142 -43 142 -191q0 -99 -68 -165t-179 -66q-220 0 -256 214zM203 -57l903 1548h128l-902 -1548h-129zM1168 231v263l-188 -263h188zM1168 -31v154h-313v123l332 474h100v-489h85v-108h-85v-154h-119z"/>
<glyph glyph-name="questiondown" horiz-adv-x="1026" unicode="¿" d="M595 701l1 -51q0 -145 -47 -242q-34 -71 -144 -189q-75 -80 -98 -129t-23 -107q0 -111 70 -187.5t162 -76.5t156.5 71t84.5 225l151 -21q-21 -211 -125 -317t-266 -106q-164 0 -274 112t-110 287q0 97 36 177t145 197q91 99 114 157t25 200h142zM604 1062v-205h-168v205 h168z"/>
<glyph glyph-name="Agrave" horiz-adv-x="1120" unicode="À" d="M345 602h407l-125 406q-58 187 -85 304q-23 -141 -65 -280zM-2 0l462 1466h171l492 -1466h-182l-140 444h-502l-132 -444h-169zM654 1566h-119l-189 280h198z"/>
<glyph glyph-name="Aacute" horiz-adv-x="1120" unicode="Á" d="M345 602h407l-125 406q-58 187 -85 304q-23 -141 -65 -280zM-2 0l462 1466h171l492 -1466h-182l-140 444h-502l-132 -444h-169zM391 1566l109 280h193l-180 -280h-122z"/>
<glyph glyph-name="Acircumflex" horiz-adv-x="1120" unicode="Â" d="M345 602h407l-125 406q-58 187 -85 304q-23 -141 -65 -280zM-2 0l462 1466h171l492 -1466h-182l-140 444h-502l-132 -444h-169zM546 1737l-92 -170h-169l177 280h158l184 -280h-167z"/>
<glyph glyph-name="Atilde" horiz-adv-x="1120" unicode="Ã" d="M345 602h407l-125 406q-58 187 -85 304q-23 -141 -65 -280zM-2 0l462 1466h171l492 -1466h-182l-140 444h-502l-132 -444h-169zM260 1568q-1 107 48 168q48 60 118 60q52 0 139 -54q48 -30 77 -30q27 0 40.5 17.5t19.5 69.5h107q-3 -115 -48.5 -171.5t-113.5 -56.5 q-50 0 -135 56q-55 36 -80 36q-27 0 -45 -23.5t-18 -71.5h-109z"/>
<glyph glyph-name="Adieresis" horiz-adv-x="1120" unicode="Ä" d="M345 602h407l-125 406q-58 187 -85 304q-23 -141 -65 -280zM-2 0l462 1466h171l492 -1466h-182l-140 444h-502l-132 -444h-169zM616 1642v205h154v-205h-154zM310 1642v205h154v-205h-154z"/>
<glyph glyph-name="Aring" horiz-adv-x="1120" unicode="Å" d="M345 602h407l-125 406q-58 187 -85 304q-23 -141 -65 -280zM-2 0l462 1466h171l492 -1466h-182l-140 444h-502l-132 -444h-169zM477 1708q0 -49 26 -80t60 -31t60.5 31t26.5 78t-26 78t-60 31q-35 0 -61 -31t-26 -76zM414 1709q0 75 44.5 127t103.5 52q58 0 102.5 -52 t44.5 -131q0 -80 -44 -131.5t-103 -51.5t-103.5 52t-44.5 135z"/>
<glyph glyph-name="AE" horiz-adv-x="1679" unicode="Æ" d="M405 595h397v698h-120zM1 0l578 1466h987v-173h-605v-451h562v-172h-562v-497h627v-173h-786v423h-465l-164 -423h-172z"/>
<glyph glyph-name="Ccedilla" horiz-adv-x="1212" unicode="Ç" d="M983 514l160 -49q-53 -247 -185.5 -368.5t-322.5 -121.5q-167 0 -285.5 81.5t-194 261.5t-75.5 425q0 242 75.5 409.5t204.5 253t288 85.5q174 0 299 -108.5t175 -318.5l-156 -45q-80 306 -321 306q-120 0 -208 -61.5t-140.5 -191.5t-52.5 -329q0 -301 106 -451.5 t282 -150.5q130 0 224.5 92.5t126.5 280.5zM507 -154l43 177h110l-28 -107q68 -10 104.5 -51t36.5 -99q0 -78 -62.5 -132.5t-170.5 -54.5q-71 0 -122 12l9 117q53 -4 81 -4q67 0 97.5 21t30.5 54q0 31 -27.5 48.5t-101.5 18.5z"/>
<glyph glyph-name="Egrave" horiz-adv-x="1120" unicode="È" d="M133 0v1466h869v-173h-710v-449h665v-172h-665v-499h738v-173h-897zM653 1566h-119l-189 280h198z"/>
<glyph glyph-name="Eacute" horiz-adv-x="1120" unicode="É" d="M133 0v1466h869v-173h-710v-449h665v-172h-665v-499h738v-173h-897zM462 1566l109 280h193l-180 -280h-122z"/>
<glyph glyph-name="Ecircumflex" horiz-adv-x="1120" unicode="Ê" d="M133 0v1466h869v-173h-710v-449h665v-172h-665v-499h738v-173h-897zM573 1737l-92 -170h-169l177 280h158l184 -280h-167z"/>
<glyph glyph-name="Edieresis" horiz-adv-x="1120" unicode="Ë" d="M133 0v1466h869v-173h-710v-449h665v-172h-665v-499h738v-173h-897zM640 1642v205h154v-205h-154zM334 1642v205h154v-205h-154z"/>
<glyph glyph-name="Igrave" horiz-adv-x="467" unicode="Ì" d="M160 0v1466h159v-1466h-159zM357 1566h-119l-189 280h198z"/>
<glyph glyph-name="Iacute" horiz-adv-x="467" unicode="Í" d="M160 0v1466h159v-1466h-159zM150 1566l109 280h193l-180 -280h-122z"/>
<glyph glyph-name="Icircumflex" horiz-adv-x="467" unicode="Î" d="M160 0v1466h159v-1466h-159zM237 1737l-92 -170h-169l177 280h158l184 -280h-167z"/>
<glyph glyph-name="Idieresis" horiz-adv-x="467" unicode="Ï" d="M160 0v1466h159v-1466h-159zM316 1642v205h154v-205h-154zM10 1642v205h154v-205h-154z"/>
<glyph glyph-name="Eth" horiz-adv-x="1212" unicode="Ð" d="M285 173h256q155 0 235 50.5t122 161.5q58 150 58 356q0 227 -61 354t-156 170q-64 28 -202 28h-252v-494h332v-132h-332v-494zM126 0v667h-132v132h132v667h415q155 0 234 -27q105 -35 182 -128t120 -234.5t43 -336.5q0 -211 -53.5 -369t-132 -237.5t-189.5 -114.5 q-62 -19 -185 -19h-434z"/>
<glyph glyph-name="Ntilde" horiz-adv-x="1212" unicode="Ñ" d="M125 0v1466h163l632 -1151v1151h152v-1466h-163l-631 1152v-1152h-153zM336 1568q-1 107 48 168q48 60 118 60q52 0 139 -54q48 -30 77 -30q27 0 40.5 17.5t19.5 69.5h107q-3 -115 -48.5 -171.5t-113.5 -56.5q-50 0 -135 56q-55 36 -80 36q-27 0 -45 -23.5t-18 -71.5 h-109z"/>
<glyph glyph-name="Ograve" horiz-adv-x="1307" unicode="Ò" d="M249 711q0 -271 119.5 -420.5t290.5 -149.5q175 0 293.5 151t118.5 444q0 189 -61 338q-47 114 -141.5 182.5t-206.5 68.5q-180 0 -296.5 -150t-116.5 -464zM85 714q0 375 165 576.5t411 201.5q159 0 290 -90t207.5 -261.5t76.5 -408.5q0 -326 -148 -531 q-163 -226 -427 -226q-266 0 -428 232q-147 210 -147 507zM768 1566h-119l-189 280h198z"/>
<glyph glyph-name="Oacute" horiz-adv-x="1307" unicode="Ó" d="M249 711q0 -271 119.5 -420.5t290.5 -149.5q175 0 293.5 151t118.5 444q0 189 -61 338q-47 114 -141.5 182.5t-206.5 68.5q-180 0 -296.5 -150t-116.5 -464zM85 714q0 375 165 576.5t411 201.5q159 0 290 -90t207.5 -261.5t76.5 -408.5q0 -326 -148 -531 q-163 -226 -427 -226q-266 0 -428 232q-147 210 -147 507zM521 1566l109 280h193l-180 -280h-122z"/>
<glyph glyph-name="Ocircumflex" horiz-adv-x="1307" unicode="Ô" d="M249 711q0 -271 119.5 -420.5t290.5 -149.5q175 0 293.5 151t118.5 444q0 189 -61 338q-47 114 -141.5 182.5t-206.5 68.5q-180 0 -296.5 -150t-116.5 -464zM85 714q0 375 165 576.5t411 201.5q159 0 290 -90t207.5 -261.5t76.5 -408.5q0 -326 -148 -531 q-163 -226 -427 -226q-266 0 -428 232q-147 210 -147 507zM660 1737l-92 -170h-169l177 280h158l184 -280h-167z"/>
<glyph glyph-name="Otilde" horiz-adv-x="1307" unicode="Õ" d="M249 711q0 -271 119.5 -420.5t290.5 -149.5q175 0 293.5 151t118.5 444q0 189 -61 338q-47 114 -141.5 182.5t-206.5 68.5q-180 0 -296.5 -150t-116.5 -464zM85 714q0 375 165 576.5t411 201.5q159 0 290 -90t207.5 -261.5t76.5 -408.5q0 -326 -148 -531 q-163 -226 -427 -226q-266 0 -428 232q-147 210 -147 507zM380 1568q-1 107 48 168q48 60 118 60q52 0 139 -54q48 -30 77 -30q27 0 40.5 17.5t19.5 69.5h107q-3 -115 -48.5 -171.5t-113.5 -56.5q-50 0 -135 56q-55 36 -80 36q-27 0 -45 -23.5t-18 -71.5h-109z"/>
<glyph glyph-name="Odieresis" horiz-adv-x="1307" unicode="Ö" d="M249 711q0 -271 119.5 -420.5t290.5 -149.5q175 0 293.5 151t118.5 444q0 189 -61 338q-47 114 -141.5 182.5t-206.5 68.5q-180 0 -296.5 -150t-116.5 -464zM85 714q0 375 165 576.5t411 201.5q159 0 290 -90t207.5 -261.5t76.5 -408.5q0 -326 -148 -531 q-163 -226 -427 -226q-266 0 -428 232q-147 210 -147 507zM718 1642v205h154v-205h-154zM412 1642v205h154v-205h-154z"/>
<glyph glyph-name="multiply" horiz-adv-x="981" unicode="×" d="M130 409l259 315l-258 314l100 122l258 -314l256 313l99 -121l-257 -313l258 -314l-100 -122l-258 314l-258 -315z"/>
<glyph glyph-name="Oslash" horiz-adv-x="1307" unicode="Ø" d="M998 1094l-610 -832q65 -66 128.5 -93.5t138.5 -27.5q175 0 293.5 151t118.5 437q0 206 -69 365zM930 1197q-77 76 -135.5 102t-134.5 26q-179 0 -296.5 -149.5t-117.5 -445.5q0 -111 15 -188.5t58 -179.5zM1029 1332l137 188l82 -84l-145 -198q74 -134 101.5 -244 t27.5 -260q0 -240 -78 -411.5t-209.5 -259.5t-289.5 -88q-102 0 -185.5 33.5t-178.5 120.5l-138 -188l-81 84l144 197q-81 153 -107.5 257t-26.5 248q0 243 78.5 417t207.5 260.5t292 86.5q103 0 187.5 -34.5t181.5 -124.5z"/>
<glyph glyph-name="Ugrave" horiz-adv-x="1212" unicode="Ù" d="M915 1466h160v-847q0 -213 -41.5 -349.5t-151 -215.5t-278.5 -79q-238 0 -356.5 142t-118.5 502v847h159v-846q0 -199 31 -288t101.5 -135.5t171.5 -46.5q170 0 246.5 96t76.5 374v846zM703 1566h-119l-189 280h198z"/>
<glyph glyph-name="Uacute" horiz-adv-x="1212" unicode="Ú" d="M915 1466h160v-847q0 -213 -41.5 -349.5t-151 -215.5t-278.5 -79q-238 0 -356.5 142t-118.5 502v847h159v-846q0 -199 31 -288t101.5 -135.5t171.5 -46.5q170 0 246.5 96t76.5 374v846zM475 1566l109 280h193l-180 -280h-122z"/>
<glyph glyph-name="Ucircumflex" horiz-adv-x="1212" unicode="Û" d="M915 1466h160v-847q0 -213 -41.5 -349.5t-151 -215.5t-278.5 -79q-238 0 -356.5 142t-118.5 502v847h159v-846q0 -199 31 -288t101.5 -135.5t171.5 -46.5q170 0 246.5 96t76.5 374v846zM605 1737l-92 -170h-169l177 280h158l184 -280h-167z"/>
<glyph glyph-name="Udieresis" horiz-adv-x="1212" unicode="Ü" d="M915 1466h160v-847q0 -213 -41.5 -349.5t-151 -215.5t-278.5 -79q-238 0 -356.5 142t-118.5 502v847h159v-846q0 -199 31 -288t101.5 -135.5t171.5 -46.5q170 0 246.5 96t76.5 374v846zM668 1642v205h154v-205h-154zM362 1642v205h154v-205h-154z"/>
<glyph glyph-name="Yacute" horiz-adv-x="1120" unicode="Ý" d="M468 0v621l-463 845h194l236 -442q70 -131 123 -248q53 115 131 259l233 431h185l-480 -845v-621h-159zM414 1566l109 280h193l-180 -280h-122z"/>
<glyph glyph-name="Thorn" horiz-adv-x="1120" unicode="Þ" d="M289 471h311q147 0 215 66.5t68 200.5q0 87 -33.5 148.5t-81 85t-171.5 23.5h-308v-524zM130 0v1466h159v-298h294q161 0 237 -29q104 -38 166 -141t62 -252q0 -197 -101 -322.5t-350 -125.5h-308v-298h-159z"/>
<glyph glyph-name="germandbls" horiz-adv-x="1026" unicode="ß" d="M128 0v999q0 191 38.5 287.5t122 150.5t190.5 54q133 0 218 -82.5t85 -202.5q0 -50 -13.5 -103.5t-52.5 -136.5q-58 -124 -58 -167q0 -37 22 -73q15 -26 95 -89q125 -100 163 -167t38 -157q0 -147 -87 -242.5t-212 -95.5q-97 0 -176.5 63t-121.5 178l127 72 q73 -165 166 -165q61 0 107 50.5t46 123.5q0 50 -19 84t-99 100q-128 107 -164.5 165t-36.5 123q0 39 11 78t50 121q71 151 71 219q0 65 -46.5 110.5t-116.5 45.5q-97 0 -148.5 -72t-51.5 -280v-991h-147z"/>
<glyph glyph-name="agrave" d="M664 533q-81 -40 -241 -68q-93 -16 -130 -36.5t-57.5 -58t-20.5 -86.5q0 -76 47 -121.5t130 -45.5q79 0 143.5 41t96.5 109.5t32 199.5v66zM676 131q-74 -77 -154 -116t-166 -39q-136 0 -217 82t-81 221q0 92 38 163t104 111t200 59q180 26 264 62l1 46q0 109 -39 153 q-55 64 -169 64q-103 0 -154 -42.5t-75 -159.5l-145 24q31 171 125.5 249t270.5 78q137 0 215 -51.5t98.5 -127.5t20.5 -222v-240q0 -252 9.5 -317.5t37.5 -127.5h-154q-23 55 -30 131zM567 1194h-119l-189 280h198z" unicode="à"/>
<glyph glyph-name="aacute" d="M664 533q-81 -40 -241 -68q-93 -16 -130 -36.5t-57.5 -58t-20.5 -86.5q0 -76 47 -121.5t130 -45.5q79 0 143.5 41t96.5 109.5t32 199.5v66zM676 131q-74 -77 -154 -116t-166 -39q-136 0 -217 82t-81 221q0 92 38 163t104 111t200 59q180 26 264 62l1 46q0 109 -39 153 q-55 64 -169 64q-103 0 -154 -42.5t-75 -159.5l-145 24q31 171 125.5 249t270.5 78q137 0 215 -51.5t98.5 -127.5t20.5 -222v-240q0 -252 9.5 -317.5t37.5 -127.5h-154q-23 55 -30 131zM353 1194l109 280h193l-180 -280h-122z" unicode="á"/>
<glyph glyph-name="acircumflex" d="M664 533q-81 -40 -241 -68q-93 -16 -130 -36.5t-57.5 -58t-20.5 -86.5q0 -76 47 -121.5t130 -45.5q79 0 143.5 41t96.5 109.5t32 199.5v66zM676 131q-74 -77 -154 -116t-166 -39q-136 0 -217 82t-81 221q0 92 38 163t104 111t200 59q180 26 264 62l1 46q0 109 -39 153 q-55 64 -169 64q-103 0 -154 -42.5t-75 -159.5l-145 24q31 171 125.5 249t270.5 78q137 0 215 -51.5t98.5 -127.5t20.5 -222v-240q0 -252 9.5 -317.5t37.5 -127.5h-154q-23 55 -30 131zM471 1364l-92 -170h-169l177 280h158l184 -280h-167z" unicode="â"/>
<glyph glyph-name="atilde" d="M664 533q-81 -40 -241 -68q-93 -16 -130 -36.5t-57.5 -58t-20.5 -86.5q0 -76 47 -121.5t130 -45.5q79 0 143.5 41t96.5 109.5t32 199.5v66zM676 131q-74 -77 -154 -116t-166 -39q-136 0 -217 82t-81 221q0 92 38 163t104 111t200 59q180 26 264 62l1 46q0 109 -39 153 q-55 64 -169 64q-103 0 -154 -42.5t-75 -159.5l-145 24q31 171 125.5 249t270.5 78q137 0 215 -51.5t98.5 -127.5t20.5 -222v-240q0 -252 9.5 -317.5t37.5 -127.5h-154q-23 55 -30 131zM182 1195q-1 107 48 168q48 60 118 60q52 0 139 -54q48 -30 77 -30q27 0 40.5 17.5 t19.5 69.5h107q-3 -115 -48.5 -171.5t-113.5 -56.5q-50 0 -135 56q-55 36 -80 36q-27 0 -45 -23.5t-18 -71.5h-109z" unicode="ã"/>
<glyph glyph-name="adieresis" d="M664 533q-81 -40 -241 -68q-93 -16 -130 -36.5t-57.5 -58t-20.5 -86.5q0 -76 47 -121.5t130 -45.5q79 0 143.5 41t96.5 109.5t32 199.5v66zM676 131q-74 -77 -154 -116t-166 -39q-136 0 -217 82t-81 221q0 92 38 163t104 111t200 59q180 26 264 62l1 46q0 109 -39 153 q-55 64 -169 64q-103 0 -154 -42.5t-75 -159.5l-145 24q31 171 125.5 249t270.5 78q137 0 215 -51.5t98.5 -127.5t20.5 -222v-240q0 -252 9.5 -317.5t37.5 -127.5h-154q-23 55 -30 131zM530 1270v205h154v-205h-154zM224 1270v205h154v-205h-154z" unicode="ä"/>
<glyph glyph-name="aring" d="M664 533q-81 -40 -241 -68q-93 -16 -130 -36.5t-57.5 -58t-20.5 -86.5q0 -76 47 -121.5t130 -45.5q79 0 143.5 41t96.5 109.5t32 199.5v66zM676 131q-74 -77 -154 -116t-166 -39q-136 0 -217 82t-81 221q0 92 38 163t104 111t200 59q180 26 264 62l1 46q0 109 -39 153 q-55 64 -169 64q-103 0 -154 -42.5t-75 -159.5l-145 24q31 171 125.5 249t270.5 78q137 0 215 -51.5t98.5 -127.5t20.5 -222v-240q0 -252 9.5 -317.5t37.5 -127.5h-154q-23 55 -30 131zM366 1381q0 -49 26 -80t60 -31t60.5 31t26.5 78t-26 78t-60 31q-35 0 -61 -31t-26 -76z M303 1382q0 75 44.5 127t103.5 52q58 0 102.5 -52t44.5 -131q0 -80 -44 -131.5t-103 -51.5t-103.5 52t-44.5 135z" unicode="å"/>
<glyph glyph-name="ae" horiz-adv-x="1493" unicode="æ" d="M647 533q-65 -35 -263 -73q-90 -17 -125 -50q-50 -48 -50 -124q0 -75 45.5 -121.5t123.5 -46.5q95 0 166 57t92 146q11 46 11 188v24zM792 633h479q-12 160 -76 232t-159 72q-102 0 -169 -78t-75 -226zM1419 325q-42 -173 -141.5 -261t-242.5 -88q-101 0 -180 47 t-144 151q-164 -198 -362 -198q-133 0 -214.5 85t-81.5 218q0 90 41 163.5t110.5 112.5t233.5 65q123 20 207 49l1 41q0 129 -44.5 178t-148.5 49q-109 0 -159.5 -42t-73.5 -162l-143 21q34 178 125.5 255t254.5 77q121 0 192 -36t106 -107q108 143 279 143q112 0 196 -59 t138 -188t54 -294l-1 -60h-629q1 -148 29.5 -213t90 -106.5t132.5 -41.5q80 0 139.5 58t81.5 167z"/>
<glyph glyph-name="ccedilla" horiz-adv-x="840" unicode="ç" d="M679 389l145 -23q-25 -190 -125.5 -290t-241.5 -100q-171 0 -281.5 140.5t-110.5 415.5q0 277 111.5 415.5t286.5 138.5q135 0 227.5 -84t118.5 -252l-143 -27q-21 108 -73 161.5t-125 53.5q-109 0 -180.5 -96.5t-71.5 -306.5q0 -217 68.5 -314t175.5 -97 q84 0 143.5 64.5t75.5 200.5zM369 -154l43 177h110l-28 -107q68 -10 104.5 -51t36.5 -99q0 -78 -62.5 -132.5t-170.5 -54.5q-71 0 -122 12l9 117q53 -4 81 -4q67 0 97.5 21t30.5 54q0 31 -27.5 48.5t-101.5 18.5z"/>
<glyph glyph-name="egrave" d="M219 633h486q-10 138 -59 206q-71 99 -181 99q-99 0 -169 -82.5t-77 -222.5zM704 342l152 -23q-38 -170 -137.5 -256.5t-246.5 -86.5q-185 0 -299.5 140.5t-114.5 405.5q0 275 115.5 419.5t292.5 144.5q169 0 282 -142t113 -411l-1 -48h-650q9 -179 83 -270t180 -91 q166 0 231 218zM585 1194h-119l-189 280h198z" unicode="è"/>
<glyph glyph-name="eacute" d="M219 633h486q-10 138 -59 206q-71 99 -181 99q-99 0 -169 -82.5t-77 -222.5zM704 342l152 -23q-38 -170 -137.5 -256.5t-246.5 -86.5q-185 0 -299.5 140.5t-114.5 405.5q0 275 115.5 419.5t292.5 144.5q169 0 282 -142t113 -411l-1 -48h-650q9 -179 83 -270t180 -91 q166 0 231 218zM355 1194l109 280h193l-180 -280h-122z" unicode="é"/>
<glyph glyph-name="ecircumflex" d="M219 633h486q-10 138 -59 206q-71 99 -181 99q-99 0 -169 -82.5t-77 -222.5zM704 342l152 -23q-38 -170 -137.5 -256.5t-246.5 -86.5q-185 0 -299.5 140.5t-114.5 405.5q0 275 115.5 419.5t292.5 144.5q169 0 282 -142t113 -411l-1 -48h-650q9 -179 83 -270t180 -91 q166 0 231 218zM490 1364l-92 -170h-169l177 280h158l184 -280h-167z" unicode="ê"/>
<glyph glyph-name="edieresis" d="M219 633h486q-10 138 -59 206q-71 99 -181 99q-99 0 -169 -82.5t-77 -222.5zM704 342l152 -23q-38 -170 -137.5 -256.5t-246.5 -86.5q-185 0 -299.5 140.5t-114.5 405.5q0 275 115.5 419.5t292.5 144.5q169 0 282 -142t113 -411l-1 -48h-650q9 -179 83 -270t180 -91 q166 0 231 218zM544 1270v205h154v-205h-154zM238 1270v205h154v-205h-154z" unicode="ë"/>
<glyph glyph-name="igrave" horiz-adv-x="467" unicode="ì" d="M166 0v1062h147v-1062h-147zM328 1194h-119l-189 280h198z"/>
<glyph glyph-name="iacute" horiz-adv-x="467" unicode="í" d="M166 0v1062h147v-1062h-147zM129 1194l109 280h193l-180 -280h-122z"/>
<glyph glyph-name="icircumflex" horiz-adv-x="467" unicode="î" d="M166 0v1062h147v-1062h-147zM247 1364l-92 -170h-169l177 280h158l184 -280h-167z"/>
<glyph glyph-name="idieresis" horiz-adv-x="467" unicode="ï" d="M166 0v1062h147v-1062h-147zM310 1270v205h154v-205h-154zM4 1270v205h154v-205h-154z"/>
<glyph glyph-name="eth" d="M711 529q0 192 -74.5 293.5t-182.5 101.5q-106 0 -176 -100.5t-70 -311.5q0 -197 72.5 -293.5t178.5 -96.5q105 0 178.5 103t73.5 304zM250 1466h177q60 -54 103 -102l175 102l38 -102l-142 -83q262 -368 262 -758q0 -261 -115.5 -404.5t-287.5 -143.5q-115 0 -206.5 62 t-144 177t-52.5 302q0 267 107.5 406.5t262.5 139.5q47 0 83.5 -12t90.5 -47q-47 116 -116 213l-226 -127l-36 103l197 109q-80 90 -170 165z" unicode="ð"/>
<glyph glyph-name="ntilde" d="M108 0v1062h133v-151q48 88 117.5 131.5t159.5 43.5q70 0 129.5 -27.5t96 -72t54.5 -115.5t18 -218v-653h-148v646q0 117 -20 171t-62.5 83.5t-98.5 29.5q-106 0 -169 -79t-63 -271v-580h-147zM209 1195q-1 107 48 168q48 60 118 60q52 0 139 -54q48 -30 77 -30 q27 0 40.5 17.5t19.5 69.5h107q-3 -115 -48.5 -171.5t-113.5 -56.5q-50 0 -135 56q-55 36 -80 36q-27 0 -45 -23.5t-18 -71.5h-109z" unicode="ñ"/>
<glyph glyph-name="ograve" d="M204 531q0 -206 75 -306.5t186 -100.5q104 0 178.5 101.5t74.5 305.5q0 205 -75 305.5t-186 100.5q-105 0 -179 -101t-74 -305zM53 531q0 275 115.5 415t292.5 140q174 0 291 -140t117 -404q0 -286 -115 -426t-293 -140q-175 0 -291.5 140.5t-116.5 414.5zM575 1194h-119 l-189 280h198z" unicode="ò"/>
<glyph glyph-name="oacute" d="M204 531q0 -206 75 -306.5t186 -100.5q104 0 178.5 101.5t74.5 305.5q0 205 -75 305.5t-186 100.5q-105 0 -179 -101t-74 -305zM53 531q0 275 115.5 415t292.5 140q174 0 291 -140t117 -404q0 -286 -115 -426t-293 -140q-175 0 -291.5 140.5t-116.5 414.5zM353 1194 l109 280h193l-180 -280h-122z" unicode="ó"/>
<glyph glyph-name="ocircumflex" d="M204 531q0 -206 75 -306.5t186 -100.5q104 0 178.5 101.5t74.5 305.5q0 205 -75 305.5t-186 100.5q-105 0 -179 -101t-74 -305zM53 531q0 275 115.5 415t292.5 140q174 0 291 -140t117 -404q0 -286 -115 -426t-293 -140q-175 0 -291.5 140.5t-116.5 414.5zM461 1364 l-92 -170h-169l177 280h158l184 -280h-167z" unicode="ô"/>
<glyph glyph-name="otilde" d="M204 531q0 -206 75 -306.5t186 -100.5q104 0 178.5 101.5t74.5 305.5q0 205 -75 305.5t-186 100.5q-105 0 -179 -101t-74 -305zM53 531q0 275 115.5 415t292.5 140q174 0 291 -140t117 -404q0 -286 -115 -426t-293 -140q-175 0 -291.5 140.5t-116.5 414.5zM177 1195 q-1 107 48 168q48 60 118 60q52 0 139 -54q48 -30 77 -30q27 0 40.5 17.5t19.5 69.5h107q-3 -115 -48.5 -171.5t-113.5 -56.5q-50 0 -135 56q-55 36 -80 36q-27 0 -45 -23.5t-18 -71.5h-109z" unicode="õ"/>
<glyph glyph-name="odieresis" d="M204 531q0 -206 75 -306.5t186 -100.5q104 0 178.5 101.5t74.5 305.5q0 205 -75 305.5t-186 100.5q-105 0 -179 -101t-74 -305zM53 531q0 275 115.5 415t292.5 140q174 0 291 -140t117 -404q0 -286 -115 -426t-293 -140q-175 0 -291.5 140.5t-116.5 414.5zM530 1270v205 h154v-205h-154zM224 1270v205h154v-205h-154z" unicode="ö"/>
<glyph glyph-name="divide" horiz-adv-x="1124" unicode="÷" d="M459 319v205h205v-205h-205zM1046 639h-968v168h968v-168zM459 922v205h205v-205h-205z"/>
<glyph glyph-name="oslash" horiz-adv-x="1026" unicode="ø" d="M739 770l-367 -583q63 -63 144 -63q112 0 187 100.5t75 309.5q0 73 -8 122t-31 114zM678 867q-75 70 -157 70q-106 0 -181.5 -101t-75.5 -301q0 -153 43 -255zM761 999l81 128l79 -70l-88 -138q53 -89 72 -163q24 -97 24 -225q0 -277 -116 -416t-299 -139q-125 0 -225 80 l-86 -135l-77 71l89 141q-53 74 -72 148q-30 111 -30 235q0 286 115 428t290 142q63 0 119 -19.5t124 -67.5z"/>
<glyph glyph-name="ugrave" d="M679 0v156q-51 -90 -120 -135t-156 -45q-103 0 -176 55.5t-97.5 140.5t-24.5 232v658h147v-589q0 -164 16.5 -219.5t61 -89t101.5 -33.5q106 0 174 87q58 75 58 275v569h148v-1062h-132zM521 1194h-119l-189 280h198z" unicode="ù"/>
<glyph glyph-name="uacute" d="M679 0v156q-51 -90 -120 -135t-156 -45q-103 0 -176 55.5t-97.5 140.5t-24.5 232v658h147v-589q0 -164 16.5 -219.5t61 -89t101.5 -33.5q106 0 174 87q58 75 58 275v569h148v-1062h-132zM353 1194l109 280h193l-180 -280h-122z" unicode="ú"/>
<glyph glyph-name="ucircumflex" d="M679 0v156q-51 -90 -120 -135t-156 -45q-103 0 -176 55.5t-97.5 140.5t-24.5 232v658h147v-589q0 -164 16.5 -219.5t61 -89t101.5 -33.5q106 0 174 87q58 75 58 275v569h148v-1062h-132zM467 1364l-92 -170h-169l177 280h158l184 -280h-167z" unicode="û"/>
<glyph glyph-name="udieresis" d="M679 0v156q-51 -90 -120 -135t-156 -45q-103 0 -176 55.5t-97.5 140.5t-24.5 232v658h147v-589q0 -164 16.5 -219.5t61 -89t101.5 -33.5q106 0 174 87q58 75 58 275v569h148v-1062h-132zM538 1270v205h154v-205h-154zM232 1270v205h154v-205h-154z" unicode="ü"/>
<glyph glyph-name="yacute" horiz-adv-x="840" unicode="ý" d="M104 -409l-16 169q49 -16 84 -16q47 0 77.5 19t50.5 59q7 14 58 176l-331 1064h159l182 -615q34 -115 63 -246q25 124 60 242l186 619h148l-331 -1080q-65 -210 -102.5 -280.5t-85 -101.5t-107.5 -31q-42 0 -95 22zM311 1194l109 280h193l-180 -280h-122z"/>
<glyph glyph-name="thorn" d="M241 525q0 -206 69 -303.5t167 -97.5q94 0 165 101t71 312q0 208 -69 308t-167 100q-90 0 -163 -107.5t-73 -312.5zM108 -407v1873h147v-516q62 79 115.5 107.5t123.5 28.5q103 0 186 -61t133.5 -185.5t50.5 -299.5q0 -270 -113.5 -417t-265.5 -147q-65 0 -117 28 t-113 106v-517h-147z" unicode="þ"/>
<glyph glyph-name="dotlessi" horiz-adv-x="467" unicode="ı" d="M166 0v1062h147v-1062h-147z"/>
<glyph glyph-name="OE" horiz-adv-x="1679" unicode="Œ" d="M590 1334q-131 0 -225.5 -141.5t-94.5 -459.5q0 -317 95 -459.5t229 -142.5q128 0 222 142.5t94 459.5q0 316 -94.5 458.5t-225.5 142.5zM1626 173v-173h-707v212q-55 -118 -136.5 -177.5t-189.5 -59.5q-211 0 -337 172q-150 206 -150 589q0 256 67 430t171 249.5 t249 75.5q108 0 189.5 -55.5t136.5 -167.5v198h682v-173h-533v-448h491v-172h-491v-500h558z"/>
<glyph glyph-name="oe" horiz-adv-x="1585" unicode="œ" d="M888 631h482q-10 154 -76 230.5t-161 76.5q-96 0 -166 -80t-79 -227zM221 533q0 -193 65 -293q75 -116 195 -116q100 0 176 105.5t76 306.5q0 199 -76 300.5t-184 101.5q-115 0 -183.5 -113t-68.5 -292zM805 175q-62 -99 -143.5 -149t-182.5 -50q-178 0 -293.5 140 t-115.5 404q0 188 53 314.5t146 189t214 62.5q107 0 193 -55t129 -148q55 98 138 150.5t180 52.5q177 0 289.5 -146.5t112.5 -440.5v-16h-642q3 -171 78 -265t181 -94q79 0 139 55t86 167l147 -26q-37 -171 -135.5 -257.5t-240.5 -86.5q-107 0 -194.5 52t-138.5 147z"/>
<glyph glyph-name="Scaron" horiz-adv-x="1120" unicode="Š" d="M76 471l150 16q12 -121 54.5 -188.5t121.5 -108.5t178 -41q142 0 220.5 69.5t78.5 180.5q0 65 -28.5 113.5t-86 79.5t-248.5 87q-170 50 -242 101t-112 129.5t-40 177.5q0 178 115 291t310 113q134 0 234.5 -53t156 -152t59.5 -233l-153 -14q-12 143 -85.5 212t-206.5 69 q-135 0 -206 -60.5t-71 -156.5q0 -89 52 -138t234 -99q178 -49 250 -85q110 -56 166 -147.5t56 -218.5q0 -126 -59 -229.5t-160.5 -157.5t-244.5 -54q-223 0 -355.5 134t-137.5 363zM542 1677l91 170h167l-184 -280h-158l-177 280h169z"/>
<glyph glyph-name="scaron" horiz-adv-x="840" unicode="š" d="M52 317l146 28q13 -112 71 -166.5t154 -54.5t148.5 47.5t52.5 120.5q0 63 -45 98q-31 24 -150 60q-172 53 -230 90t-90 99t-32 141q0 136 87 221t241 85q97 0 170.5 -35t112.5 -94t54 -169l-144 -24q-20 174 -189 174q-96 0 -143 -38.5t-47 -98.5q0 -59 45 -93 q27 -20 160 -64q183 -59 237 -93.5t84 -94t30 -141.5q0 -152 -96.5 -246t-263.5 -94q-313 0 -363 342zM407 1304l91 170h167l-184 -280h-158l-177 280h169z"/>
<glyph glyph-name="Ydieresis" horiz-adv-x="1120" unicode="Ÿ" d="M468 0v621l-463 845h194l236 -442q70 -131 123 -248q53 115 131 259l233 431h185l-480 -845v-621h-159zM625 1642v205h154v-205h-154zM319 1642v205h154v-205h-154z"/>
<glyph glyph-name="circumflex" horiz-adv-x="559" unicode="ˆ" d="M281 1364l-92 -170h-169l177 280h158l184 -280h-167z"/>
<glyph glyph-name="caron" horiz-adv-x="559" unicode="ˇ" d="M294 1304l91 170h167l-184 -280h-158l-177 280h169z"/>
<glyph glyph-name="ring" horiz-adv-x="559" unicode="˚" d="M196 1337q0 -49 26 -80t60 -31t60.5 31t26.5 78t-26 78t-60 31q-35 0 -61 -31t-26 -76zM133 1338q0 75 44.5 127t103.5 52q58 0 102.5 -52t44.5 -131q0 -80 -44 -131.5t-103 -51.5t-103.5 52t-44.5 135z"/>
<glyph glyph-name="tilde" horiz-adv-x="559" unicode="˜" d="M6 1219q-1 107 48 168q48 60 118 60q52 0 139 -54q48 -30 77 -30q27 0 40.5 17.5t19.5 69.5h107q-3 -115 -48.5 -171.5t-113.5 -56.5q-50 0 -135 56q-55 36 -80 36q-27 0 -45 -23.5t-18 -71.5h-109z"/>
<glyph glyph-name="Alpha" horiz-adv-x="1120" unicode="Α" d="M345 602h407l-125 406q-58 187 -85 304q-23 -141 -65 -280zM-2 0l462 1466h171l492 -1466h-182l-140 444h-502l-132 -444h-169z"/>
<glyph glyph-name="Beta" horiz-adv-x="1120" unicode="Β" d="M283 173h299q99 0 146 18q68 26 103.5 85.5t35.5 149.5q0 83 -34 140.5t-91.5 84t-180.5 26.5h-278v-504zM283 850h260q102 0 145 14q62 21 95.5 70.5t33.5 134.5q0 79 -30.5 131.5t-81 72.5t-181.5 20h-241v-443zM124 0v1466h451q137 0 217 -42.5t131 -132.5t51 -199 q0 -101 -44 -182t-124 -130q105 -38 165.5 -129.5t60.5 -225.5q0 -133 -54.5 -233.5t-145.5 -146t-250 -45.5h-458z"/>
<glyph glyph-name="Gamma" horiz-adv-x="897" unicode="Γ" d="M132 1467h729v-174h-570v-1293h-159v1467z"/>
<glyph glyph-name="Delta" horiz-adv-x="1145" unicode="Δ" d="M489 1032l-258 -860h668l-260 836q-54 177 -84 305q-21 -133 -66 -281zM1135 0h-1125l463 1466h170z"/>
<glyph glyph-name="Epsilon" horiz-adv-x="1120" unicode="Ε" d="M133 0v1466h869v-173h-710v-449h665v-172h-665v-499h738v-173h-897z"/>
<glyph glyph-name="Zeta" horiz-adv-x="1026" unicode="Ζ" d="M36 0v180l616 939q64 98 125 174h-672v173h861v-173l-674 -1017l-73 -103h767v-173h-950z"/>
<glyph glyph-name="Eta" horiz-adv-x="1212" unicode="Η" d="M129 0v1466h159v-602h625v602h159v-1466h-159v691h-625v-691h-159z"/>
<glyph glyph-name="Theta" horiz-adv-x="1229" unicode="Θ" d="M391 829h449v-167h-449v167zM622 1345q-181 0 -276 -156.5t-95 -451.5q0 -305 94.5 -462t266.5 -157q368 0 368 627q0 283 -95 441.5t-263 158.5zM622 1503q147 0 261 -78t189.5 -249t75.5 -445q0 -205 -54 -384.5t-176.5 -283t-299.5 -103.5q-259 0 -397.5 210.5 t-138.5 563.5q0 337 133.5 553t406.5 216z"/>
<glyph glyph-name="Iota" horiz-adv-x="467" unicode="Ι" d="M160 0v1466h159v-1466h-159z"/>
<glyph glyph-name="Kappa" horiz-adv-x="1120" unicode="Κ" d="M124 0v1466h159v-727l597 727h216l-505 -594l527 -872h-210l-428 742l-197 -234v-508h-159z"/>
<glyph glyph-name="Lambda" horiz-adv-x="1120" unicode="Λ" d="M481 1466h162l467 -1466h-172l-313 1065q-35 112 -64 240q-30 -130 -63 -240l-326 -1065h-162z"/>
<glyph glyph-name="Mu" horiz-adv-x="1399" unicode="Μ" d="M125 0v1466h239l285 -1038l57 -217q21 81 64 235l288 1020h214v-1466h-153v1227l-350 -1227h-143l-348 1248v-1248h-153z"/>
<glyph glyph-name="Nu" horiz-adv-x="1212" unicode="Ν" d="M125 0v1466h163l632 -1151v1151h152v-1466h-163l-631 1152v-1152h-153z"/>
<glyph glyph-name="Xi" horiz-adv-x="1092" unicode="Ξ" d="M90 0v172h914v-172h-914zM188 647v172h715v-172h-715zM113 1294v172h868v-172h-868z"/>
<glyph glyph-name="Omicron" horiz-adv-x="1307" unicode="Ο" d="M249 711q0 -271 119.5 -420.5t290.5 -149.5q175 0 293.5 151t118.5 444q0 189 -61 338q-47 114 -141.5 182.5t-206.5 68.5q-180 0 -296.5 -150t-116.5 -464zM85 714q0 375 165 576.5t411 201.5q159 0 290 -90t207.5 -261.5t76.5 -408.5q0 -326 -148 -531 q-163 -226 -427 -226q-266 0 -428 232q-147 210 -147 507z"/>
<glyph glyph-name="Pi" horiz-adv-x="1212" unicode="Π" d="M295 0h-160v1466h944v-1466h-159v1294h-625v-1294z"/>
<glyph glyph-name="Rho" horiz-adv-x="1120" unicode="Ρ" d="M289 769h311q147 0 215 66.5t68 200.5q0 87 -33.5 149t-81 85t-171.5 23h-308v-524zM130 0v1466h453q160 0 236 -28q104 -38 166 -141t62 -253q0 -198 -101 -323t-349 -125h-308v-596h-159z"/>
<glyph glyph-name="Sigma" horiz-adv-x="1012" unicode="Σ" d="M80 1466h817v-172h-645l410 -532l-410 -590h680v-172h-852v201l393 561l-393 510v194z"/>
<glyph glyph-name="Tau" horiz-adv-x="1026" unicode="Τ" d="M438 0v1293h-396v173h953v-173h-398v-1293h-159z"/>
<glyph glyph-name="Upsilon" horiz-adv-x="1120" unicode="Υ" d="M468 0v621l-463 845h194l236 -442q70 -131 123 -248q53 115 131 259l233 431h185l-480 -845v-621h-159z"/>
<glyph glyph-name="Phi" horiz-adv-x="1357" unicode="Φ" d="M760 1155v-866q183 4 269.5 117.5t86.5 317.5q0 423 -356 431zM601 1155q-358 -4 -358 -432q0 -409 358 -434v866zM601 1503h159v-194q527 -23 527 -585q0 -565 -527 -587v-312h-159v312q-530 23 -530 587q0 563 530 585v194z"/>
<glyph glyph-name="Chi" horiz-adv-x="1120" unicode="Χ" d="M8 0l465 764l-410 702h189l219 -376q67 -116 96 -180q39 78 95 167l243 389h172l-422 -691l455 -775h-196l-303 523q-25 44 -52 98q-41 -80 -58 -110l-302 -511h-191z"/>
<glyph glyph-name="Psi" horiz-adv-x="1352" unicode="Ψ" d="M78 1016v450h160v-413q0 -205 100 -318.5t258 -113.5v845h160v-845q356 0 356 452v393h160v-434q0 -275 -132 -427t-384 -152v-453h-160v453q-234 0 -376 155.5t-142 407.5z"/>
<glyph glyph-name="alpha" horiz-adv-x="1013" unicode="α" d="M479 942q-126 0 -188.5 -113.5t-62.5 -297.5q0 -197 65.5 -309t185.5 -112q252 0 252 422q0 203 -67.5 306.5t-184.5 103.5zM751 192q-112 -220 -305 -220q-124 0 -215.5 75t-133 201t-41.5 262q0 260 106.5 415t288.5 155q201 0 296 -197l36 180h160q-58 -258 -58 -514 q0 -301 69 -549h-165q-26 112 -38 192z"/>
<glyph glyph-name="beta" horiz-adv-x="944" unicode="β" d="M428 733h-41v131q287 0 287 248q0 100 -58 165.5t-145 65.5q-66 0 -120 -39.5t-73.5 -97.5t-19.5 -207v-452q0 -148 20 -230t85.5 -145t146.5 -63q98 0 161.5 82.5t63.5 218.5q0 146 -81 234.5t-226 88.5zM588 805q144 -22 221.5 -124.5t77.5 -260.5q0 -190 -97 -317.5 t-249 -127.5q-189 0 -283 160v-543h-147v1440q0 218 100.5 338.5t267.5 120.5q149 0 242.5 -107.5t93.5 -253.5q0 -122 -60 -210.5t-167 -114.5z"/>
<glyph glyph-name="gamma" horiz-adv-x="840" unicode="γ" d="M346 0l-326 1061h156l244 -836l248 836h151l-325 -1061v-408h-148v408z"/>
<glyph glyph-name="delta" d="M467 909q-112 0 -184 -108.5t-72 -286.5q0 -174 74.5 -281.5t185.5 -107.5q113 0 183.5 104.5t70.5 286.5q0 183 -71.5 288t-186.5 105zM143 1337v129h658v-145h-461q76 -92 210 -208.5t192.5 -182t96.5 -163t38 -239.5q0 -257 -110.5 -404t-293.5 -147 q-192 0 -303 146.5t-111 392.5q0 235 99 379.5t266 153.5q-96 85 -281 288z" unicode="δ"/>
<glyph glyph-name="epsilon" horiz-adv-x="729" unicode="ε" d="M420 618h31v-145h-27q-221 0 -221 -176q0 -75 45.5 -123.5t111.5 -48.5q111 0 213 131l107 -111q-72 -89 -147 -128.5t-187 -39.5q-134 0 -214.5 89t-80.5 223q0 186 144 260q-121 80 -121 235q0 128 77.5 214.5t210.5 86.5q168 0 287 -143l-106 -104q-102 92 -189 92 q-64 0 -101.5 -42.5t-37.5 -103.5q0 -166 205 -166z"/>
<glyph glyph-name="zeta" horiz-adv-x="737" unicode="ζ" d="M193 1321v145h534v-123q-243 -192 -380.5 -450.5t-137.5 -480.5q0 -105 32 -157.5t79 -68.5t131 -25t136 -33t88 -87t36 -141q0 -121 -78.5 -225.5t-241.5 -104.5l39 166q139 23 139 139q0 54 -33 87.5t-153.5 39.5t-185.5 51t-102.5 140t-37.5 227q0 221 129.5 470.5 t345.5 430.5h-339z"/>
<glyph glyph-name="eta" d="M248 1061v-150q97 174 276 174q108 0 183 -59t95.5 -142t20.5 -231v-1061h-147v1053q0 184 -57.5 234.5t-126.5 50.5q-83 0 -156.5 -68t-73.5 -282v-580h-147v1061h133z" unicode="η"/>
<glyph glyph-name="theta" d="M707 662h-480q10 -331 79.5 -434t160.5 -103q227 0 240 537zM227 807h480q-8 277 -64.5 406.5t-175.5 129.5q-118 0 -175 -130.5t-65 -405.5zM467 -23q-391 0 -391 756q0 758 391 758q393 0 393 -758q0 -756 -393 -756z" unicode="θ"/>
<glyph glyph-name="iota" horiz-adv-x="467" unicode="ι" d="M166 0v1062h147v-1062h-147z"/>
<glyph glyph-name="kappa" horiz-adv-x="836" unicode="κ" d="M109 0v1061h147v-416l352 416h197l-391 -440l424 -621h-189l-340 500l-53 -62v-438h-147z"/>
<glyph glyph-name="lambda" horiz-adv-x="840" unicode="λ" d="M664 0l-244 795l-244 -795h-156l324 1042l-129 424h156l448 -1466h-155z"/>
<glyph glyph-name="mu" d="M686 0v125q-75 -152 -221 -152q-122 0 -205 133v-514h-147v1469h147v-449q0 -98 8 -210t33 -158t66.5 -75.5t91.5 -29.5q64 0 117 41t75.5 114t22.5 247v520h147v-1061h-135z" unicode="μ"/>
<glyph glyph-name="nu" horiz-adv-x="840" unicode="ν" d="M352 0l-331 1062h156l187 -636q32 -108 56 -214q19 84 54 202l194 648h152l-330 -1062h-138z"/>
<glyph glyph-name="xi" horiz-adv-x="643" unicode="ξ" d="M467 983h141v-149q-193 0 -295 -125t-102 -283q0 -197 164 -244q202 -58 266 -107.5t64 -187.5q0 -124 -86 -220.5t-244 -96.5l39 166q149 18 149 137q0 63 -39 87t-129 44q-210 46 -273 159.5t-63 256.5q0 146 69.5 267t197.5 192q-110 22 -167 100t-57 182 q0 144 101 236t252 92h161v-146h-143q-110 0 -169.5 -50t-59.5 -134q0 -176 223 -176z"/>
<glyph glyph-name="omicron" d="M204 531q0 -206 75 -306.5t186 -100.5q104 0 178.5 101.5t74.5 305.5q0 205 -75 305.5t-186 100.5q-105 0 -179 -101t-74 -305zM53 531q0 275 115.5 415t292.5 140q174 0 291 -140t117 -404q0 -286 -115 -426t-293 -140q-175 0 -291.5 140.5t-116.5 414.5z" unicode="ο"/>
<glyph glyph-name="pi" horiz-adv-x="1139" unicode="π" d="M766 915h-363v-915h-147v915h-229v146h1085v-146h-199v-915h-147v915z"/>
<glyph glyph-name="rho" horiz-adv-x="958" unicode="ρ" d="M748 522q0 199 -68 307.5t-182 108.5q-238 0 -238 -420q0 -189 62 -291t170 -102q120 0 188 104t68 293zM258 -408h-147v934q0 273 99.5 416t285.5 143q179 0 291 -151t112 -402q0 -252 -106.5 -403.5t-278.5 -151.5q-161 0 -256 123v-508z"/>
<glyph glyph-name="sigma1" horiz-adv-x="793" unicode="ς" d="M299 -418l37 166q46 -12 82 -12q75 0 123.5 39.5t48.5 101.5q0 38 -25 67t-128 61q-376 116 -376 484q0 251 146 423.5t360 172.5q123 0 215 -32l-37 -152q-95 37 -182 37q-158 0 -259 -120.5t-101 -311.5q0 -243 273 -338q165 -58 215 -125.5t50 -153.5 q0 -139 -87.5 -229t-229.5 -90q-65 0 -125 12z"/>
<glyph glyph-name="sigma" horiz-adv-x="1117" unicode="σ" d="M496 955q-271 0 -271 -442q0 -187 68.5 -296t193.5 -109q133 0 199.5 111t66.5 318q0 191 -65.5 304.5t-191.5 113.5zM806 912q117 -136 117 -383q0 -254 -114 -405.5t-317 -151.5q-209 0 -322.5 153t-113.5 403q0 260 117 406t295 146q35 0 129 -8q36 -4 108 -8h380 v-152h-279z"/>
<glyph glyph-name="tau" horiz-adv-x="641" unicode="τ" d="M614 915h-211v-915h-147v915h-229v146h587v-146z"/>
<glyph glyph-name="upsilon" d="M113 414v647h147v-655q0 -126 58 -203.5t147 -77.5q92 0 150.5 79.5t58.5 219.5v637h147v-651q0 -199 -97 -316t-261 -117q-163 0 -256.5 115t-93.5 322z" unicode="υ"/>
<glyph glyph-name="phi" horiz-adv-x="1090" unicode="φ" d="M625 764v-625q115 27 184.5 151.5t69.5 303.5q0 160 -50.5 252t-119.5 92q-43 0 -63.5 -37t-20.5 -137zM477 -408v383q-187 20 -302.5 185t-115.5 397q0 228 101.5 377t243.5 149h6l-29 -155q-170 -70 -170 -363q0 -165 69 -280.5t197 -151.5v660q0 184 47.5 238 t149.5 54q178 0 267 -160t89 -341q0 -225 -105 -389t-300 -220v-383h-148z"/>
<glyph glyph-name="chi" horiz-adv-x="877" unicode="χ" d="M348 332l-311 729h162l239 -588l248 588h162l-320 -723l336 -746h-168l-258 613l-262 -613h-164z"/>
<glyph glyph-name="psi" horiz-adv-x="1223" unicode="ψ" d="M113 520v541h147v-549q0 -213 69 -295.5t208 -89.5v934h147v-934q140 8 209.5 92.5t69.5 294.5v547h147v-541q0 -189 -38.5 -300.5t-140.5 -175t-247 -69.5v-383h-147v383q-148 6 -250 73t-138 175.5t-36 296.5z"/>
<glyph glyph-name="endash" d="M-6 458v145h934v-145h-934z" unicode="–"/>
<glyph glyph-name="emdash" horiz-adv-x="1679" unicode="—" d="M0 458v145h1679v-145h-1679z"/>
<glyph glyph-name="quoteleft" horiz-adv-x="373" unicode="‘" d="M260 1195v-209h-158v165q0 141 33.5 209t101.5 106l37 -71q-42 -21 -65 -64.5t-26 -135.5h77z"/>
<glyph glyph-name="quotesinglbase" horiz-adv-x="373" unicode="‚" d="M98 0v209h159v-165q0 -141 -34 -209t-102 -106l-36 71q86 44 90 200h-77z"/>
<glyph glyph-name="quotedblleft" horiz-adv-x="559" unicode="“" d="M226 1195v-209h-158v165q0 141 33.5 209t101.5 106l37 -71q-42 -21 -65 -64.5t-26 -135.5h77zM481 1195v-209h-159v165q0 141 34 209t101 106l37 -71q-42 -21 -65 -65t-26 -135h78z"/>
<glyph glyph-name="quotedblright" horiz-adv-x="559" unicode="”" d="M325 1256v210h159v-165q0 -142 -33.5 -210t-101.5 -105l-37 70q41 21 64.5 66t26.5 134h-78zM71 1256v210h159v-165q0 -142 -34 -210t-102 -105l-36 70q86 44 90 200h-77z"/>
<glyph glyph-name="dagger" d="M385 -346v1212h-328v160h328v406h147v-406h330v-160h-330v-1212h-147z" unicode="†"/>
<glyph glyph-name="daggerdbl" d="M387 -346v370h-330v161h330v725h-330v161h330v375h147v-375h331v-161h-331v-725h331v-161h-331v-370h-147z" unicode="‡"/>
<glyph glyph-name="ellipsis" horiz-adv-x="1679" unicode="…" d="M1316 0v205h168v-205h-168zM756 0v205h168v-205h-168zM196 0v205h168v-205h-168z"/>
<glyph glyph-name="perthousand" horiz-adv-x="1679" unicode="‰" d="M1300 328q0 -150 32 -204t88 -54q47 0 77.5 54.5t30.5 206.5q0 151 -32 206t-84 55q-50 0 -77 -48q-35 -64 -35 -216zM1178 336q0 200 65.5 290t167.5 90q105 0 171.5 -91t66.5 -297q0 -204 -65 -293t-169 -89q-103 0 -170 92.5t-67 297.5zM747 328q0 -150 31.5 -204 t88.5 -54q47 0 77.5 54.5t30.5 206.5q0 151 -32 206t-85 55q-49 0 -76 -48q-35 -64 -35 -216zM625 336q0 200 65.5 290t167.5 90q105 0 171.5 -91t66.5 -297q0 -204 -65 -293t-169 -89q-103 0 -170 92.5t-67 297.5zM152 1091q0 -150 32 -204t88 -54q47 0 74 47q34 62 34 213 t-32 206.5t-84 55.5q-50 0 -77 -49q-35 -63 -35 -215zM30 1099q0 199 65.5 289.5t167.5 90.5q105 0 171.5 -91t66.5 -297q0 -204 -65 -293.5t-169 -89.5q-103 0 -170 92.5t-67 298.5zM262 -54l493 1545h108l-493 -1545h-108z"/>
<glyph glyph-name="minute" horiz-adv-x="322" unicode="′" d="M109 947l-38 274v245h168v-245l-39 -274h-91z"/>
<glyph glyph-name="second" horiz-adv-x="596" unicode="″" d="M388 947l-39 279v240h168v-240l-40 -279h-89zM117 947l-41 279v240h168v-240l-37 -279h-90z"/>
<glyph glyph-name="guilsinglleft" horiz-adv-x="559" unicode="‹" d="M238 527l217 -455h-122l-258 455l258 457h122z"/>
<glyph glyph-name="guilsinglright" horiz-adv-x="559" unicode="›" d="M320 530l-217 454h122l258 -454l-258 -458h-122z"/>
<glyph glyph-name="radicalex" d="M-42 1869h1018v-74h-1018v74z" unicode="‾"/>
<glyph glyph-name="fraction" horiz-adv-x="281" unicode="⁄" d="M-373 -57l903 1548h128l-902 -1548h-129z"/>
<glyph glyph-name="fraction" horiz-adv-x="281" unicode="∕" d="M-373 -57l903 1548h128l-902 -1548h-129z"/>
<glyph glyph-name="Euro" d="M874 1225q-102 100 -233 100q-143 0 -249 -104.5t-130 -284.5h559l-22 -135h-551v-131h528l-22 -135h-488q28 -190 127.5 -292t247.5 -102q143 0 233 99v-207q-100 -58 -231 -58q-445 0 -541 560h-125l23 135h86q-2 24 -2 61v70h-107l23 135h96q40 263 190.5 409 t366.5 146q144 0 256 -82z" unicode="€"/>
<glyph glyph-name="trademark" horiz-adv-x="1679" unicode="™" d="M806 651v815h164l169 -651l163 651h160v-815h-101v684l-173 -684h-100l-180 694v-694h-102zM402 651v694h-217v121h546v-121h-218v-694h-111z"/>
<glyph glyph-name="arrowleft" horiz-adv-x="2048" unicode="←" d="M492 876h76q-58 -118 -88 -166t-107 -143h1595v-101h-1595q104 -108 198 -309h-78q-129 145 -222 219t-192 122v45q87 37 184 113t229 220z"/>
<glyph glyph-name="arrowup" horiz-adv-x="1024" unicode="↑" d="M153 926q145 133 221 230t112 183h46q48 -99 122 -192t218 -222v-77q-201 94 -309 197v-1474h-101v1474q-96 -76 -144 -106t-165 -89v76z"/>
<glyph glyph-name="arrowright" horiz-adv-x="2048" unicode="→" d="M1555 876q133 -144 230 -220t183 -113v-45q-99 -48 -192 -122t-222 -219h-77q94 201 197 309h-1595v101h1595q-76 97 -106 144t-89 165h76z"/>
<glyph glyph-name="arrowdown" horiz-adv-x="1024" unicode="↓" d="M153 -16v76q119 -59 166 -89t143 -106v1474h101v-1474q108 103 309 197v-77q-144 -129 -218 -222t-122 -192h-46q-36 86 -112 183t-221 230z"/>
<glyph glyph-name="partialdiff" horiz-adv-x="1012" unicode="∂" d="M854 796q-244 -14 -357.5 -68t-187 -176.5t-73.5 -248.5q0 -83 51 -137t119 -54q75 0 160 55q117 76 190.5 234.5t97.5 394.5zM426 1138l-135 60q70 157 168 225t192 68q76 0 137.5 -39.5t92.5 -90.5q47 -79 69.5 -187t22.5 -248q0 -288 -86.5 -512.5t-233.5 -331.5 t-289 -107q-137 0 -222.5 91t-85.5 256q0 226 153 387q197 207 649 215q-4 168 -24 256t-68 135.5t-113 47.5q-62 0 -121 -49.5t-106 -175.5z"/>
<glyph glyph-name="product" horiz-adv-x="1686" unicode="∏" d="M161 1491h1362v-1922h-191v1748h-978v-1748h-193v1922z"/>
<glyph glyph-name="summation" horiz-adv-x="1460" unicode="∑" d="M139 1491h1237v-164h-988l607 -775l-649 -822h1040v-161h-1264v187l620 788l-603 772v175z"/>
<glyph glyph-name="minus" horiz-adv-x="981" unicode="−" d="M886 639h-794v168h794v-168z"/>
<glyph glyph-name="radical" horiz-adv-x="1124" unicode="√" d="M1050 1869h74l-312 -1947l-496 1021l-198 -91l-34 64l301 151l405 -823z"/>
<glyph glyph-name="infinity" horiz-adv-x="1460" unicode="∞" d="M620 716q-80 100 -128 128.5t-92 28.5q-58 0 -96.5 -41t-38.5 -113q0 -71 40 -113.5t97 -42.5q101 0 218 153zM758 717q87 -135 159 -185q46 -33 103 -33q76 0 127.5 56t51.5 158q0 106 -52.5 162t-130.5 56q-49 0 -92 -28q-58 -39 -166 -186zM689 812q105 132 164 174 q80 58 169 58q105 0 196.5 -76t91.5 -245q0 -118 -34 -185.5t-106 -108.5t-148 -41q-89 0 -169 57q-59 43 -164 175q-136 -171 -289 -171q-101 0 -173.5 76.5t-72.5 190.5q0 113 72.5 190t173.5 77q153 0 289 -171z"/>
<glyph glyph-name="intersection" horiz-adv-x="1479" unicode="∩" d="M302 0h-110v560q0 248 6 314q12 119 44 195q32 75 102 149t174 120t219 46q112 0 214 -44t177 -120t107 -160q32 -85 42 -212q4 -50 4 -288v-560h-109v566q0 218 -6 281q-10 111 -36 177t-80 122q-54 58 -140 95q-84 37 -174 37q-74 0 -144 -26t-118 -62q-50 -38 -80 -78 t-45 -74q-25 -60 -36 -146t-11 -326v-566z"/>
<glyph glyph-name="approxequal" horiz-adv-x="1124" unicode="≈" d="M51 376v205q106 120 278 120q60 0 125.5 -17t188.5 -70q69 -29 103.5 -38t69.5 -9q65 0 134.5 39t123.5 98v-212q-64 -60 -129.5 -87t-147.5 -27q-60 0 -114 14t-173 67t-198 53q-64 0 -120.5 -27.5t-140.5 -108.5zM51 738v205q106 120 278 120q60 0 125.5 -17t188.5 -70 q69 -30 103.5 -38.5t69.5 -8.5q65 0 134.5 39t123.5 98v-212q-64 -60 -129.5 -87t-147.5 -27q-60 0 -114 13.5t-173 66.5q-119 54 -198 54q-64 0 -120.5 -27.5t-140.5 -108.5z"/>
<glyph glyph-name="notequal" horiz-adv-x="1124" unicode="≠" d="M495 417l-194 -445h-136l195 445h-282v168h356l122 277h-478v168h551l196 444h134l-195 -444h282v-168h-356l-121 -277h477v-168h-551z"/>
<glyph glyph-name="equivalence" horiz-adv-x="979" unicode="≡" d="M887 194h-794v168h794v-168zM887 639h-794v168h794v-168zM887 1085h-794v167h794v-167z"/>
<glyph glyph-name="lessequal" horiz-adv-x="1124" unicode="≤" d="M1046 106h-968v167h968v-167zM77 762v168l971 410v-180l-770 -315l770 -319v-179z"/>
<glyph glyph-name="greaterequal" horiz-adv-x="1124" unicode="≥" d="M1046 106h-968v167h968v-167zM1048 762l-971 -415v179l769 319l-769 315v180l971 -410v-168z"/>
<glyph glyph-name="lozenge" horiz-adv-x="1012" unicode="◊" d="M495 1325l-340 -616l340 -615l359 615zM549 1422l418 -713l-418 -709h-111l-391 709l391 713h111z"/>
<glyph glyph-name="spade" horiz-adv-x="1088" unicode="♠" d="M487 1231q26 -108 80 -193q55 -84 193 -210t175 -194t37 -136q0 -95 -64 -159t-154 -64q-156 0 -255 190q1 -147 39 -233t119 -136q82 -50 219 -59l7 -37h-792l7 37q184 -1 286 107q98 103 97 305v16q-45 -95 -111 -143t-150 -47q-90 0 -155 65t-65 154q0 74 32 133 q45 83 157 174q140 115 217 229q56 83 81 201z"/>
<glyph glyph-name="club" horiz-adv-x="1344" unicode="♣" d="M1098 0h-848l8 34q165 35 219 69q81 51 133 151t51 210l-1 47q-60 -124 -148 -181t-179 -57q-116 0 -197 81t-81 199q0 115 74 195t168 80q60 0 163 -51q-42 69 -54 105t-13 77q0 115 79 193t198 79q118 -1 198 -79t80 -189q0 -88 -69 -186q84 40 101 45q27 8 61 8 q99 0 173 -78t74 -195q0 -119 -80 -201t-194 -82q-62 0 -128 30t-117 82q-35 37 -87 125q4 -159 48 -251t137 -154q62 -41 223 -72z"/>
<glyph glyph-name="heart" horiz-adv-x="1216" unicode="♥" d="M547 -24q-31 118 -89 222t-222 321q-121 160 -149 203q-47 70 -67 128t-20 119q0 111 74 186t184 75q109 0 190 -78q61 -58 99 -173q36 127 113 189t170 63q108 0 184 -74t76 -176q0 -91 -44 -188t-170 -257q-164 -207 -231 -326t-98 -234z"/>
<glyph glyph-name="diamond" horiz-adv-x="1045" unicode="♦" d="M457 1231q89 -151 229 -337t232 -290q-74 -78 -242 -302q-136 -182 -218 -326q-43 81 -178 269q-93 129 -280 359q101 115 260 328q118 158 197 299z"/>
<glyph glyph-name="foursuperior" d="M332 995v263l-188 -263h188zM332 733v154h-313v123l332 474h100v-489h85v-108h-85v-154h-119z" horiz-adv-x="559"/>
</font>
</defs>
</svg>
